<svg xmlns="http://www.w3.org/2000/svg" viewBox="0 0 641.38 527.11"><title>logo</title><g data-name="Layer 2"><g data-name="Layer 1"><g data-name="Layer 2"><g data-name="Слой 1"><path d="m238.8 405.7 3.6 1.8 2.6.8a4 4 0 0 0 2.9-.7 8 8 0 0 0 2.8-5.3 4 4 0 0 0-.7-2.2l-1.4-1.5-3-2-3-1.9-5.6 9.8zm165.6-303.1c-3.3-1.6-7.6 1.4-11 9-3.4 7.3-3.3 12.3-.3 13.7 3.2 1.7 7.1-1.8 11-8.7 3.5-6.7 4.2-12 .3-14m-89.5 324.8a4 4 0 0 0 1.3-1.8 7 7 0 0 0 .5-2.6 7 7 0 0 0-.5-3 4 4 0 0 0-1.8-1.8l-2-.5-3.2-.5-2.3-.2c-.4 4.6-.7 6.8-1 11.4h.1l1.9.2a15 15 0 0 0 4.4-.2 7 7 0 0 0 2.6-1m-99.4-305.1c-1.5-2-4.2-3.2-7.3-.8-2.8 2.2-2.9 5.2-1.2 7.2 1.9 2.4 6.2 2.5 8.1.8 1.5-1.2 2-5 .4-7.2m.5 18.6a5.6 5.6 0 0 0 7.8 1h.1a5.4 5.4 0 0 0 1.4-7.5l-.2-.3c-2.1-3-6.8-3.4-9.1-1.5-2 1.6-1.9 6 0 8.3m104.7-32.4c3.6 0 5.5-5 5.7-12.8.2-7.6-1.5-12.6-5.8-12.6-3.6 0-6 4.6-5.7 13 .3 8 2.6 12.4 5.8 12.4m22.5 315.7-1.4 7.4-.5 2.5 6.2-1zM251 97c-3.3 1.4-4 6.5-.5 14.2 3.3 7.3 7.1 10.5 10.2 9.3 3.3-1.4 3.3-6.7.5-14-2.7-7.1-6.2-11.2-10.2-9.5m-22 10.8c-3.2 1.8-3.1 7 1.3 14.2 4.3 6.7 8.5 9.5 11.4 7.8 3.2-1.9 2.4-7-1.3-14-3.5-6.7-7.6-10.2-11.4-8m170 293.4a7 7 0 0 0-1.7-2.1 3 3 0 0 0-2.1-.6l-2 .4-3.2 1.5-3 1.6 4.7 10.3 1.8-1 3.5-2.2 2-1.8a5 5 0 0 0 1-3 7 7 0 0 0-1-3.1" style="fill:#13457b"/><path d="M564.7 231.2c3.3 2 6 4 6.1 6.2.3 2.5-2.9 5.8-6.6 9l-.2 4.7c5.8-4.6 10.9-9.1 10.4-14.1-.4-4-4.5-7-9.5-9.8ZM95 215.5a7 7 0 0 1-2.5 3.3l5.3-.8.7-1.8c1-4.9-3.5-10.5-8.3-16.5-4-5-8.5-10.5-7.5-13.7s8-5 14.2-6.7c7.3-2 14.3-3.8 16.3-8.4s-1.2-11-4.7-17.8c-2.9-5.7-6.1-12.1-4.5-15s9-3.3 15.3-3.6c7.6-.4 14.8-.8 17.8-4.8s1-11-1-18.4c-1.6-6.2-3.4-13.1-1.2-15.6q1.3-1.5 5.5-1.5a72 72 0 0 1 10.1 1.1 74 74 0 0 0 10.7 1.2q5.3 0 7.7-2.2c3.7-3.3 3.3-10.5 3-18.2-.4-6.3-.8-13.6 2-15.5a5 5 0 0 1 2.6-.7c3.3 0 8 1.8 12.7 3.6 4.9 1.8 10 3.8 14 3.8a8 8 0 0 0 4.2-1c4.3-2.5 5.4-9.6 6.6-17.1 1-6.3 2.2-13.5 5.3-14.9l1.3-.2c3.3 0 8.2 3.2 13 6.3 5.5 3.5 10.7 6.9 15 6.9l2.3-.4c4.7-1.5 7.3-8.2 10-15.3 2.3-6 5-12.7 8.3-13.4 3-.7 8.2 4.4 12.7 8.8 5.4 5.5 10.6 10.6 15.6 10s9-6.6 13.2-13c3.4-5.3 7.3-11.3 10.6-11.3s7.4 6 10.9 11.5c4.1 6.3 8 12.3 13 12.8h.7c4.7 0 9.6-4.9 14.8-10 4.5-4.5 9.6-9.6 12.8-9s5.9 7.6 8.2 13.5c2.7 7.1 5.3 13.8 10 15.4l2.3.3c4.3 0 9.5-3.3 15-6.9 4.7-3 9.7-6.2 13-6.2l1.4.2c3 1.4 4.1 8.5 5.1 14.8 1.2 7.6 2.4 14.7 6.7 17.2a8 8 0 0 0 4.2 1c4 0 9-2 14-3.8 4.6-1.7 9.4-3.5 12.7-3.5a5 5 0 0 1 2.7.7c2.7 2 2.3 9.1 2 15.5-.4 7.6-.7 14.9 3 18.2q2.3 2.2 7.6 2.2a74 74 0 0 0 10.7-1.2 71 71 0 0 1 10.2-1.1q4.2 0 5.5 1.5c2.2 2.4.4 9.4-1.3 15.5-2 7.4-3.8 14.4-.9 18.5s10.2 4.3 17.8 4.8c6.3.3 13.6.7 15.3 3.6s-1.7 9.3-4.5 15c-3.5 6.8-6.8 13.2-4.7 17.8s8.9 6.4 16.2 8.3c6.2 1.7 13.2 3.6 14.3 6.8s-3.5 8.7-7.5 13.6c-4.8 6-9.4 11.7-8.4 16.6l.8 2 5.4.8a7 7 0 0 1-2.7-3.6c-.7-3.2 3.7-8.7 7.7-13.5 5-6.2 9.7-12 8-17s-8.9-7-16.6-9c-6-1.7-12.7-3.5-14-6.5s1.8-9.2 4.6-14.8c3.6-7 7-13.8 4.4-18.3s-10.2-5-18.2-5.4c-6.1-.3-13.1-.7-15-3.3s-.1-9.5 1.4-15.4c2-7.7 4-15 .5-19q-2.4-2.6-8.1-2.6a73 73 0 0 0-10.8 1.2 72 72 0 0 1-10.1 1.1q-3.9 0-5.3-1.3c-2.4-2.2-2-9.2-1.8-15.3.5-8 .8-15.5-3.4-18.6a8 8 0 0 0-4.8-1.4c-4 0-9 2-14 3.8a42 42 0 0 1-12.6 3.6 5 5 0 0 1-2.5-.5c-2.8-1.7-4-8.6-4.9-14.6-1.2-8-2.4-15.4-7.2-17.5a7 7 0 0 0-2.9-.6c-4.3 0-9.5 3.3-15 6.8-4.7 3.1-9.7 6.3-13 6.3l-1.2-.1c-3-1-5.6-7.5-7.8-13.3-2.8-7.5-5.6-14.5-10.7-15.6l-1.4-.2c-4.7 0-9.5 4.9-14.7 10-4.2 4.3-9 9-12.3 9h-.4c-3.2-.3-7-6.1-10.3-11.2-4.4-6.8-8.5-13.1-13.9-13.1s-9.2 6.3-13.5 12.9c-3.4 5.2-7.3 11.1-10.6 11.5s-8.4-4.7-12.8-9c-5.1-5.1-10-10-14.6-10l-1.3.2c-5.2 1-8 8.2-10.9 15.6-2.2 5.8-4.7 12.2-7.8 13.2l-1.1.2c-3.3 0-8.3-3.2-13.1-6.3-5.5-3.6-10.6-6.9-15-6.9a7 7 0 0 0-2.8.6c-4.8 2.1-6 9.6-7.2 17.5-1 6-2.1 13-5 14.6a5 5 0 0 1-2.4.5 43 43 0 0 1-12.7-3.6c-5-1.8-10-3.8-14-3.8a8 8 0 0 0-4.7 1.4c-4.3 3-3.9 10.6-3.5 18.6.3 6.2.7 13.1-1.7 15.3Q165 93 161.3 93a72 72 0 0 1-10.2-1 74 74 0 0 0-10.7-1.3q-5.8 0-8.1 2.7c-3.5 4-1.6 11.2.4 19 1.6 6 3.4 12.6 1.5 15.3s-9 3-15 3.4c-8 .4-15.6.8-18.2 5.3s.8 11.3 4.4 18.4c2.8 5.5 6 11.8 4.6 14.8s-8 4.8-14 6.4c-7.7 2-15 4-16.7 9s3.1 10.8 8.1 17c3.9 4.8 8.3 10.2 7.6 13.5M534.1 374c2.9 5.7 6.2 12.2 4.5 15s-8.9 3.3-15.3 3.7c-7.6.4-14.8.8-17.7 4.8s-1 11 .9 18.4c1.6 6.1 3.5 13.1 1.3 15.6q-1.5 1.5-5.5 1.5a71 71 0 0 1-10.2-1.1 74 74 0 0 0-10.7-1.2q-5.2 0-7.7 2.2c-3.7 3.3-3.3 10.5-2.9 18.1.3 6.4.7 13.6-2 15.6a5 5 0 0 1-2.7.7c-3.3 0-8-1.8-12.6-3.6-5-1.9-10-3.8-14-3.8a8 8 0 0 0-4.3 1c-4.3 2.5-5.4 9.6-6.6 17.1-1 6.3-2.2 13.5-5.2 14.9l-1.4.2c-3.3 0-8.2-3.2-13-6.3-5.5-3.5-10.7-6.9-15-6.9l-2.3.4c-4.7 1.5-7.3 8.2-10 15.2-2.3 6-5 12.8-8.3 13.5h-.6c-3.2 0-8-4.7-12-8.8-5.3-5.2-10.2-10.1-15-10.1h-.7c-5 .5-9 6.6-13.2 13-3.5 5.4-7.4 11.4-10.6 11.4-3.4 0-7.4-6.1-10.9-11.5-4.1-6.4-8-12.4-13-12.9h-.7c-4.8 0-9.7 4.9-14.8 10-4.2 4.3-9 9-12.2 9h-.6c-3.3-.8-6-7.5-8.2-13.5-2.8-7.1-5.3-13.8-10-15.3l-2.3-.4c-4.3 0-9.5 3.4-15 6.9-4.7 3-9.7 6.3-13 6.3l-1.4-.3c-3-1.4-4.1-8.5-5.2-14.8-1.2-7.5-2.3-14.7-6.6-17.1a8 8 0 0 0-4.2-1c-4 0-9 1.9-14 3.8a43 43 0 0 1-12.7 3.5 5 5 0 0 1-2.7-.6c-2.7-2-2.3-9.2-2-15.6.4-7.6.8-14.8-3-18.2q-2.3-2.1-7.6-2.1a73 73 0 0 0-10.7 1.1 72 72 0 0 1-10.1 1.2q-4.2 0-5.5-1.5c-2.2-2.5-.4-9.4 1.2-15.6 2-7.4 3.9-14.4 1-18.4s-10.2-4.4-17.8-4.8c-6.4-.3-13.6-.7-15.3-3.6s1.6-9.3 4.5-15l2.8-5.6-4.2.5-1.8 3.6c-3.6 7-7 13.7-4.4 18.3s10.2 5 18.2 5.4c6.2.3 13.1.7 15 3.3s.2 9.4-1.4 15.4c-2 7.7-4 15-.5 18.9q2.4 2.7 8.1 2.7a73 73 0 0 0 10.8-1.2 73 73 0 0 1 10.2-1.2q3.8 0 5.2 1.3c2.5 2.2 2 9.2 1.8 15.4-.4 8-.8 15.5 3.4 18.6a8 8 0 0 0 4.8 1.3c4 0 9-1.9 14-3.8a43 43 0 0 1 12.7-3.6 5 5 0 0 1 2.5.6c2.8 1.6 3.9 8.5 4.9 14.6 1.2 7.9 2.4 15.3 7.2 17.5a7 7 0 0 0 2.9.6c4.3 0 9.5-3.4 15-6.9 4.7-3 9.7-6.3 13-6.3l1.1.2c3.1 1 5.6 7.5 7.9 13.2 2.8 7.5 5.6 14.6 10.7 15.7l1.4.1c4.7 0 9.5-4.8 14.7-10 4.2-4.2 9-9 12.3-9h.3c3.2.3 7 6.2 10.4 11.3 4.4 6.7 8.5 13 13.8 13 5.2 0 9.3-6.3 13.6-13 3.4-5.2 7.3-11 10.6-11.4h.3c3.4 0 8.2 4.8 12.4 9 5.2 5.1 10 10 14.7 10l1.3-.1c5.2-1.1 8-8.2 10.8-15.7 2.2-5.7 4.8-12.2 7.8-13.2l1.2-.1c3.3 0 8.3 3.2 13.1 6.3 5.4 3.5 10.6 6.9 14.9 6.9a7 7 0 0 0 2.8-.6c4.9-2.2 6-9.6 7.3-17.5 1-6.1 2-13 4.9-14.6a5 5 0 0 1 2.5-.6c3.3 0 8 1.9 12.7 3.6a45 45 0 0 0 14 3.8 8 8 0 0 0 4.7-1.3c4.3-3.1 3.9-10.7 3.5-18.7-.4-6.1-.7-13 1.7-15.3q1.4-1.3 5.3-1.3a71 71 0 0 1 10.2 1.2 74 74 0 0 0 10.7 1.1q5.7 0 8.1-2.7c3.5-3.9 1.6-11.1-.5-18.9-1.6-6-3.4-12.7-1.4-15.3s8.9-3 15-3.4c8-.4 15.5-.8 18.2-5.4s-.8-11.2-4.4-18.3l-1.6-3.3-4.2-.6zM71.8 237.4c.2-1.9 2.2-3.7 5-5.4l-.2-4.1c-4.5 2.6-8 5.4-8.3 9-.5 4.6 3.8 8.8 9 13l-.1-4.7c-3.2-2.9-5.6-5.6-5.4-7.8" style="fill:#fff"/><path d="M321.3 470.5a206 206 0 0 0 146.3-60.6 208 208 0 0 0 33-42.8l-4.3-.1A203 203 0 0 1 218 438.7a203 203 0 0 1-71.6-71.6l-.4-.1h-3.9a208 208 0 0 0 32.9 43 206 206 0 0 0 146.3 60.6m146.3-353.3a207 207 0 0 0-292.7.3 207 207 0 0 0-54.7 97.2l3.9-.5c22-88.4 102.1-154 197.2-154S496.6 126 518.6 214.5l3.9.5a206 206 0 0 0-54.9-97.7" style="fill:#fff"/><path d="M431.5 329.9a128.6 128.6 0 0 1-220.4-.1l-4 .4a132 132 0 0 0 228.3.1ZM321.3 131.4A132 132 0 0 0 202.4 206l4.1-.3a128.6 128.6 0 0 1 229.7.1l4.1.3a132 132 0 0 0-119-74.6M101.1 349.2l41.2 11.3v-17.9zm439.4 0-41.2-6.6v17.8zM253.6 417a14 14 0 0 0 5.7-7.1 17 17 0 0 0 1.4-8.5 14 14 0 0 0-3-7.2 20 20 0 0 0-3.2-3.2l-4.4-3a117 117 0 0 1-10.4-7l-26.9 40c4.1 3 6.2 4.4 10.5 7.1l8.9-15.2 2.3 1.4A176 176 0 0 0 237 436a145 145 0 0 0 13.2 6.3 174 174 0 0 1-4.8-24 13 13 0 0 0 8-1.5m-8-20.4 3 2 1.5 1.6a4 4 0 0 1 .6 2.1 8 8 0 0 1-2.8 5.4 4 4 0 0 1-3 .6l-2.4-.7-3.7-2-1.8-1 5.7-9.8Zm46.7 18.4 1.8-9.6a137 137 0 0 1-24.2-7.4l-17 45.6a182 182 0 0 0 33.5 10l1.7-9.5a144 144 0 0 1-20.9-5.6l3-9.8a136 136 0 0 0 16 4.4l2-9.6a128 128 0 0 1-15.2-4.1l2.7-8.8a121 121 0 0 0 16.6 4.4" style="fill:#fff"/><path d="m305 438.2 2.2.2a26 26 0 0 0 8.5-.6 17 17 0 0 0 6.4-3 13 13 0 0 0 3.8-5.2 16 16 0 0 0 1-6.5 17 17 0 0 0-2.5-8.7 14 14 0 0 0-6.2-5.2l-3.6-1.1-4.6-.6a112 112 0 0 1-11.2-1.4l-7.4 48.3c4.7.8 7.1 1.1 12 1.6zm2.8-9.6-1.9-.2 1-11.3 2.3.2 3.2.4 2 .6a4 4 0 0 1 1.8 1.7 7 7 0 0 1 .5 3 7 7 0 0 1-.5 2.6 4 4 0 0 1-1.4 1.8 7 7 0 0 1-2.6 1.1 15 15 0 0 1-4.4.1m31.2 15.6c5.4-.6 8-1 13.5-2 2.4 4.3 3.7 6.5 6.4 10.7 5-1 7.5-1.7 12.4-3.1a342 342 0 0 1-26.7-44c-3 .6-4.6.8-7.7 1.2a281 281 0 0 1-14 49.9c5 0 7.6-.2 12.7-.6 1.4-4.8 2.1-7.2 3.3-12.1m2.3-10.1.5-2.5q.8-3.2 1.3-7.4l4.4 9zm43.8 11.1-15.8-46c-3.5 1.3-5.2 1.9-8.7 3l13 47c4.6-1.4 7-2.2 11.5-4m32-15.8c5.1-3.1 7.6-4.8 12.5-8.4a141 141 0 0 1-22-8.6 14 14 0 0 0 .6-16.9 16 16 0 0 0-6-5.8 13 13 0 0 0-7.5-1.2 18 18 0 0 0-4.4 1.1l-4.8 2.2a114 114 0 0 1-11 5.3l17.6 45.4c4.5-2 6.8-3 11.2-5.3l-7.4-16 2.3-1.3a147 147 0 0 0 19 9.5m-20-20.2-3.5 2.1-1.8 1L387 402l3-1.6 3.2-1.5 2-.4a3 3 0 0 1 2.2.6 7 7 0 0 1 1.8 2.1 7 7 0 0 1 1 3.3 5 5 0 0 1-1.2 2.9zM192 129.3c.4 5 2.3 11.8 8.8 18.3a35 35 0 0 0 17.5 9.9l2-1.9a38 38 0 0 1-17-10.3 28 28 0 0 1-8.7-18.4zm26.5-9.7c-2.2-3.2-7-4.5-11.9-.7-4.5 3.5-5.7 9-2.5 12.7 1.7 2 4.5 3 8.2 2.1v.1q-2.8 5.6 1 10c3 3.5 8 4 12.4.6 4.1-3.2 5.4-8.3 2.4-12.8q-3.3-4.5-9.4-3.1v-.1c1.8-3.6 1.3-6.7-.2-8.8m-11.5 9.1c-1.7-2-1.6-5 1.2-7.2 3.1-2.4 5.8-1.2 7.3.8 1.6 2.2 1.1 6-.4 7.2-2 1.7-6.2 1.6-8.1-.8m18.1 5.5a5.4 5.4 0 0 1-.9 7.5l-.3.2a5.6 5.6 0 0 1-7.8-.8l-.1-.2c-1.8-2.2-2-6.7 0-8.3 2.3-1.8 7-1.4 9.1 1.6m2.5-29.3c-5.6 3.2-6.4 10.6-.7 19.2 5.6 8.4 11.7 11.2 16.2 8.6q7.7-4.7.8-18.9c-4.4-8.7-10.5-12.2-16.3-9m14 24.9c-2.8 1.6-7-1-11.3-7.8-4.4-7.2-4.5-12.4-1.3-14.2 3.8-2.2 7.8 1.3 11.4 8 3.7 7 4.5 12.1 1.3 14ZM250 94c-5.9 2.3-7.6 9.5-3.1 18.8 4.4 9.1 10 12.7 14.7 10.7q8.2-3.5 3.2-18.5c-3.2-9.3-8.7-13.6-14.8-11m10.6 26.5c-3 1.2-6.8-2-10.1-9.3-3.5-7.7-2.9-12.8.5-14.2 4-1.6 7.5 2.4 10.2 9.5 2.7 7.4 2.8 12.6-.6 14m15.7 3.3a38 38 0 0 0-.3-20c-2.4-9-7.1-14-11.2-16.8l-3.1 1a30 30 0 0 1 11.2 16.6 40 40 0 0 1 1 20zm28.3-42.6c-5.9.5-8.8.9-14.6 1.8.2 6 .3 9 .7 15l3.8-1c5.6-.9 8.4 1.7 8.9 5.6a6.4 6.4 0 0 1-5.3 7.4h-.2a11 11 0 0 1-5.8-.7l-.3 3.3a12 12 0 0 0 6.6.8c5.6-.8 9.2-5.6 8.6-11.6a9 9 0 0 0-4.7-7.4 11 11 0 0 0-6.4-.9l-2.3.5-.1-8c4.6-.7 6.8-1 11.4-1.4 0-1.3-.1-2-.3-3.4m15.9 30.5c5.7 0 9.2-5.6 9.8-16 .5-9.8-3-15.8-9.4-15.8s-10.5 6-9.9 16.3c.7 10.1 4.5 15.5 9.5 15.5m0-28.6c4.4 0 6 5 5.9 12.6-.2 7.9-2.1 12.8-5.7 12.8-3.2 0-5.5-4.4-5.8-12.4-.3-8.4 2.1-13 5.7-13m22.9 29.6 4.3-30.4-3.5-.5-7 2.9.5 3.2 5.5-2.3-3.1 26.7zm10.9-9.5c4.2.8 6.2 1.2 10.3 2.3l.8-3c-4.2-1-6.3-1.5-10.5-2.3zm14.6 9.3-3.6 2.3-.7 2.4a130 130 0 0 1 15.7 5.4l1.3-3.2a134 134 0 0 0-11.2-4v-.1l2.7-1.6c7.4-4 12.8-6.8 14.9-12 1.6-4.2.7-9.6-5.7-11.7a13 13 0 0 0-9.2.3l.4 3.2a10 10 0 0 1 7-.5c4.3 1.4 4.6 4.7 3.5 7.6-1.6 4.4-6.3 6.8-15.1 12m37-12.7c-5.7-2.9-12.2.5-16.2 10s-3 15.9 1.6 18.2c5.2 2.6 11-.7 16.2-9.8 4.8-8.4 4.4-15.4-1.5-18.4m-2 16.7c-3.8 6.9-7.7 10.4-11 8.7-3-1.4-3-6.4.3-13.7 3.5-7.6 7.8-10.6 11-9 4 2 3.3 7.3-.3 14m3.9 13.7-4.1 1.2-1.3 2.2a132 132 0 0 1 14 9.6l2.2-2.8c-4-3-6-4.4-10-7v-.1l3-.7c8.3-2 14.4-3.1 17.8-7.7 2.6-3.5 3-9-2.7-12.8a13 13 0 0 0-9.2-2.3l-.4 3.3a10 10 0 0 1 7 1.4c4 2.6 3.5 5.9 1.6 8.4-2.6 3.8-8 4.7-17.9 7.3m19 17.8a13 13 0 0 1-3.4-5.4l-2.8 1.8a14 14 0 0 0 4 6.2c5 4.3 10.5 3.8 14 .3a8 8 0 0 0 .6-10.3q5.7 2.2 9.2-1.3c2.6-2.7 3.1-7.4-1.7-11.7a15 15 0 0 0-8-3.8l-1 3.1a11 11 0 0 1 6.1 2.6c3 2.7 2.7 5.4 1 7.2-2.5 2.7-6.4 1.2-8.6-.8l-1.8-1.5-2 2.4 1.7 1.5c3 2.6 4.5 6.5 1.6 9.7-1.8 1.9-5.2 3.2-8.8 0M125.9 362s-27.2-8.2-44.9-11.2v-2l-5.3-83.5s-46.2 7-68.4 20.3l20.9 37.8s3 8.2.9 16.5-15.2 46.6-15.2 46.6 69.3-23.5 112-24.4m508.3-76.5c-22.2-13.3-68.4-20.3-68.4-20.3l-5.1 81.8-.2 3.4v.4c-17.8 3-45 11.2-45 11.2 42.7.9 112 24.5 112 24.5s-12.8-38.3-15-46.6.8-16.5.8-16.5Z" style="fill:#fff"/><path d="m638.9 288.2 2.5-4.5-4.4-2.7c-22.9-13.7-68.5-20.7-70.4-21l-2.8-.4v-.9c5.4-7.4 20.4-15.5 19.7-22.7-.6-5.7-10.7-9.8-18.4-14.3v-.3l-.8-.1c-4-2.4-7.1-4.9-7.7-7.8-1.9-8.6 18.1-23.1 15.5-31.4s-27.5-8.4-31-16.4 13-26.4 8.5-34-28.5-2.4-33.7-9.5 7.2-28.5 1.3-35-28.4 3.6-35-2.3 1.2-29.4-6-34.6-27 9.4-34.7 5-5-29-13-32.5-24.5 14.8-32.9 12-10.8-27.2-19.5-29-20.8 19.5-29.7 18.6S330.3 0 321.5 0 305 23.5 296.1 24.5 275.1 4 266.6 5.8c-8.7 1.8-11.3 26.4-19.6 29s-24.9-15.6-32.9-12-5.4 28.1-13 32.5-27.6-10.1-34.7-5 .6 28.7-6 34.6-29-4.2-35 2.3 6.5 28 1.4 35-29.4 2-33.8 9.5 12.2 26 8.6 34-28.3 8-31 16.4 17.3 22.8 15.4 31.5c-.5 2.7-3.5 5.1-7.2 7.4l-2.5.4v1c-7.5 4.3-16.6 8.2-17.2 13.6-.7 6.6 12.2 14 18.4 21l.1 2.6-2.8.4c-2 .3-47.6 7.3-70.5 21L0 283.7l2.5 4.5 20.7 37.4c.4 1.3 2.1 7.2.6 13-2.2 8-14.9 45.9-15 46.2l-3.5 10.3 10.2-3.5c.6-.2 46.2-15.6 85.4-21.7-3.2 8.8-11 20-7.9 25.5 4.4 7.6 28.6 2.4 33.8 9.5s-7.2 28.5-1.3 35 28.4-3.5 35 2.3-1.2 29.4 6 34.6 27-9.4 34.7-5 4.9 29 13 32.5 24.5-14.8 32.9-12 10.8 27.3 19.5 29.1 20.8-19.6 29.6-18.7 16.3 24.4 25.2 24.4c8.7 0 16.3-23.5 25.1-24.4s21.2 20.5 29.7 18.7c8.7-1.9 11.2-26.5 19.5-29.1s25 15.6 32.9 12 5.4-28 13-32.5 27.6 10.2 34.7 5-.6-28.6 6-34.5 29.1 4.2 35-2.4-6.5-27.9-1.3-35 29.3-1.9 33.7-9.5c3.2-5.5-4.5-16.5-7.8-25.3 39 6.3 83.5 21.3 84 21.5l10.3 3.4-3.5-10.2c-.1-.4-12.9-38.1-15-46.2-1.5-5.7.2-11.6.6-13Zm-557-62.3 8.6-1.4 1-.2h.2l1.6-.2h.1l1.8-.3h.2l1.8-.3h.4l1.8-.3h.4l1.9-.3h.4l2-.4h.4l2.1-.4h.5l2.3-.3.4-.1 2.3-.3.6-.1 2.3-.3h.6l2.5-.4.6-.1h.3l3.8-.5 1.7-.3h.7l2.7-.4h.8l2.7-.4.8-.1 2.8-.4h.8l2.8-.4.9-.1 3-.4.9-.1 3-.4h1l3-.4 1-.1 3-.4 1-.1 3.2-.4h1l3.2-.4 1.1-.1 3.2-.4h1.2l3.3-.4 1.1-.1 3.4-.4 1.2-.1 3.3-.3 1.3-.1 3.4-.4h1.3l3.4-.4 1.3-.1 3.5-.3 1.3-.1 3.6-.3 4.3-.4h.5l1.5-.1 3.5-.3 1.5-.1 3.6-.3 1.5-.1 3.6-.3h1.6l3.5-.3 1.7-.1 3.5-.3h1.7l3.6-.3 1.7-.1 3.6-.2 1.8-.1 3.6-.2 1.7-.1 3.7-.2h1.8l3.6-.3h1.9l3.6-.2h1.9l3.6-.2 2-.1 3.5-.1h2l3.6-.2h2l3.7-.2h7.7l3.7-.1h55.6l3.3.1h2.4l3.2.2h2.5l3.1.1 2.5.1 3 .1 2.6.1 3 .1 2.5.1 3 .2 2.6.1 2.9.1 2.5.2 3 .1 2.4.1 3 .2 2.4.1 2.9.2 2.4.2 2.8.1 2.5.2 2.8.2 2.4.1 2.8.2 2.4.2 2.7.2 2.4.2 2.6.2 2.5.2 2.5.2 2.5.2h1.2l4 .4 2.1.2 2.3.2 2.5.2 2.3.2 2.4.3 2.4.2 2.3.2 2.3.2 2.3.2 2.3.3 2.2.2 2.3.2 2.1.2 2.3.3 2 .2 2.3.2 2 .2 2.2.3 2 .2 2 .2 2 .3 2.2.2 1.9.2 2 .3 1.9.2 2 .2 1.8.2 2 .3 1.7.2 2 .2 1.6.3 2 .2 1.5.2 1.8.2 1.7.2 1.7.3 1.6.2 4.8.6 1.4.2 1.6.2 1.4.2 1.5.2 1.4.2 1.4.2 1.3.2 1.4.2 1.1.2 1.4.2 1.1.2 1.3.1 1 .2 1.3.2.8.1 1.3.2.9.1 1.1.2 1 .2 1 .1.8.1.9.2.8.1.8.1.8.2 7 1.1-4 118A1271 1271 0 0 0 320.8 318S201 318.4 86 343.9Zm331.6-21.2-8-5.7-7.8 5.7 3-9.2-7.9-5.7h9.8l3-9.3 3 9.3h9.7l-7.9 5.7Zm-169.7 0-8-5.7-7.8 5.7 3-9.2-7.9-5.7h9.8l3-9.3 3 9.3h9.7l-7.9 5.7Zm38.4-4.2-12.2-8.8-12.2 8.8 4.6-14.3-12.2-9h15.1L270 163l4.7 14.4h15l-12.1 8.9Zm55.7-1.9-17.1-12.4-17.1 12.4 6.5-20L293 166h21.1l6.5-20 6.6 20h21.1l-17 12.5Zm45.9 2-12.3-9-12.2 9 4.7-14.4-12.2-9h15l4.7-14.3 4.7 14.4h15.1l-12.2 8.9ZM321.3 135a129 129 0 0 0-114.8 70.6l-4 .3a132.2 132.2 0 0 1 237.8.1l-4.1-.3A129 129 0 0 0 321.3 135m-102.6-6.5c3.9-1 7.3 0 9.4 3 3 4.6 1.7 9.7-2.4 12.9-4.4 3.4-9.5 2.9-12.4-.5q-3.8-4.6-1-10.1-5.6 1-8.2-2.2c-3.2-3.7-2-9.1 2.5-12.7 5-3.8 9.7-2.5 12 .7 1.4 2.1 2 5.2 0 8.8Zm54.2-23.9a30 30 0 0 0-11.2-16.7l3.1-1a29 29 0 0 1 11.2 16.8 38 38 0 0 1 .3 20l-2.5.8a40 40 0 0 0-.9-19.9m-8.1.4q5 15-3.1 18.5c-4.7 2-10.4-1.6-14.8-10.7-4.5-9.3-2.8-16.5 3.1-18.9 6-2.5 11.6 1.8 14.8 11.1M243 132.7c-4.5 2.6-10.6-.2-16.2-8.6-5.7-8.6-4.9-16 .7-19.2 5.8-3.4 11.9.1 16.3 9 4.7 9.3 4.2 15.9-.8 18.8m-39.8 12.6a38 38 0 0 0 17 10.3l-2 1.9a35 35 0 0 1-17.4-9.9 28 28 0 0 1-8.9-18.3l2.6-2.4c.3 6 2.8 12.2 8.7 18.4M293.6 94l2.3-.5a11 11 0 0 1 6.4.9 9 9 0 0 1 4.7 7.4c.5 6-3 10.7-8.6 11.6a12 12 0 0 1-6.6-.8l.2-3.3a11 11 0 0 0 6 .7 6.4 6.4 0 0 0 5.4-7.2v-.2c-.5-4-3.3-6.5-8.8-5.6l-4 1-.6-15c5.8-1 8.8-1.3 14.6-1.9l.4 3.5c-4.6.4-7 .7-11.5 1.4zm27.3-14.1c6.4 0 9.9 6 9.4 15.8-.6 10.4-4.1 16-9.8 16-5 0-8.8-5.4-9.4-15.5s3.5-16.3 9.8-16.3m22.4 5.7-5.5 2.3-.5-3.2 7-3 3.5.5-4.3 30.5-3.3-.4zm37.3 7.4a10 10 0 0 0-7 .5l-.4-3.1a13 13 0 0 1 9.3-.4c6.3 2.2 7.2 7.5 5.6 11.6-2.1 5.3-7.5 8-14.9 12.2l-2.7 1.5a154 154 0 0 1 11.2 4l-1.3 3.3a130 130 0 0 0-15.7-5.4l.7-2.5c1.4-1 2.2-1.3 3.6-2.2 8.8-5.2 13.6-7.5 15.2-11.9 1-2.9.7-6.1-3.6-7.6m43.8 21.6a10 10 0 0 0-7-1.4l.4-3.2a13 13 0 0 1 9.2 2.2c5.7 3.8 5.2 9.3 2.6 12.9-3.4 4.5-9.5 5.6-17.8 7.6l-3 .7c4 2.7 6 4.1 10 7.1l-2.1 2.8a132 132 0 0 0-14.2-9.6l1.3-2.2 4.2-1.2c10-2.6 15.2-3.5 18-7.3 1.8-2.5 2.3-5.8-1.6-8.4m10 23.8-1.7-1.5 2-2.4 1.7 1.6c2.3 2 6.1 3.4 8.6.8 1.7-1.8 2-4.6-1-7.3a11 11 0 0 0-6.2-2.6l1-3a15 15 0 0 1 8 3.7c5 4.3 4.5 9 1.8 11.7q-3.5 3.5-9.2 1.3a8 8 0 0 1-.7 10.3c-3.4 3.5-9 4-13.8-.3a14 14 0 0 1-4.1-6.2l2.8-1.8a13 13 0 0 0 3.5 5.5c3.6 3.1 7 1.8 8.8 0 2.9-3.2 1.4-7.2-1.6-9.8Zm-26.8-20c-5.2 9-11 12.3-16.2 9.8-4.6-2.3-5.6-8.9-1.6-18.2 4-9.5 10.6-13 16.3-10 5.9 2.9 6.3 9.9 1.4 18.4Zm-42.9-12.8c-4-1.1-6.1-1.6-10.3-2.4l.6-3c4.2.8 6.3 1.3 10.5 2.4zm-43.4-45.3a204 204 0 0 0-197.2 154l-3.9.5a207 207 0 0 1 250.2-152 207 207 0 0 1 152 152.2l-3.8-.5A203.6 203.6 0 0 0 321.3 60.3m81.9 377c-4.4 2.2-6.7 3.3-11.2 5.2l-17.6-45.4a114 114 0 0 0 11-5.2l4.8-2.2a18 18 0 0 1 4.4-1.2 13 13 0 0 1 7.4 1.3 16 16 0 0 1 6.1 5.7 14 14 0 0 1-.7 17 140 140 0 0 0 22 8.5c-4.8 3.6-7.3 5.3-12.3 8.4a148 148 0 0 1-19-9.5l-2.4 1.2zm-115.3-14-2 9.6a136 136 0 0 1-16-4.4c-1.1 4-1.7 6-3 9.8a144 144 0 0 0 21 5.5l-1.8 9.7a182 182 0 0 1-33.4-10l17-45.7a137 137 0 0 0 24.2 7.4l-1.8 9.6a121 121 0 0 1-16.6-4.4l-2.7 8.8a128 128 0 0 0 15.1 4.1m-37.6 19.1c-5.3-2.2-8-3.5-13.2-6.2a176 176 0 0 1-2.6-21.8l-2.3-1.5-8.9 15.3a122 122 0 0 1-10.5-7.2l26.9-40a117 117 0 0 0 10.4 7l4.4 3a20 20 0 0 1 3.3 3.3 14 14 0 0 1 2.9 7.1 17 17 0 0 1-1.4 8.5 14 14 0 0 1-5.7 7 13 13 0 0 1-8 1.6 171 171 0 0 0 4.7 24Zm48.5-36.3a112 112 0 0 0 11.2 1.4l4.6.6 3.6 1a14 14 0 0 1 6.2 5.3 17 17 0 0 1 2.5 8.7 16 16 0 0 1-1 6.5 13 13 0 0 1-3.8 5.2 17 17 0 0 1-6.4 3 26 26 0 0 1-8.5.6l-2.1-.2h-.2l-1.6 17.8a147 147 0 0 1-12-1.5zm38 1c3.2-.4 4.7-.6 7.8-1.2a342 342 0 0 0 26.7 44c-5 1.4-7.4 2-12.4 3-2.7-4.2-4-6.3-6.4-10.6-5.4 1-8.1 1.4-13.6 2-1.2 4.8-1.9 7.3-3.3 12.1-5.1.4-7.7.5-12.8.6a281 281 0 0 0 14-50Zm23.7-5c3.5-1 5.2-1.6 8.7-2.9l15.8 46c-4.6 1.8-6.9 2.6-11.5 4zm-39.2-6.3a132 132 0 0 1-114.1-65.6l3.9-.4a128.6 128.6 0 0 0 220.4.1l3.9.4a132 132 0 0 1-114 65.5Zm-179-35.3-41.2-11.3 41.2-6.5Zm85.7-34.4 7.9 5.7 7.8-5.7-3 9.2 7.9 5.7h-9.7l-3 9.3-3-9.3h-9.7l7.8-5.7Zm169.7 0 7.9 5.7 7.8-5.7-3 9.2 7.9 5.7h-9.7l-3 9.3-3-9.3h-9.8l7.9-5.7Zm-38.4 4.2 12.2 8.8 12.2-8.8-4.6 14.3 12.2 8.9h-15.1l-4.7 14.4-4.7-14.4h-15l12.2-8.9Zm-55.7 1.8 17.1 12.5 17.1-12.5-6.5 20.1 17 12.5h-21l-6.6 20-6.5-20H293l17-12.5Zm-45.9-1.8 12.2 8.8 12.2-8.8-4.6 14.3 12.2 8.9h-15.1l-4.7 14.4-4.6-14.4H250l12.3-8.9Zm241.6 12.3 41.2 6.6-41.2 11.3ZM146 367l.4.1a203 203 0 0 0 278.3 71.5 203 203 0 0 0 71.6-71.6h4.2a208 208 0 0 1-32.9 42.8 207 207 0 0 1-292.5 0 208 208 0 0 1-33-42.7Zm428.4-130c.5 5-4.6 9.5-10.4 14.2l.2-4.8c3.7-3.2 6.9-6.5 6.6-9-.2-2.1-2.8-4.2-6-6.2v-4c5.1 2.8 9.2 5.8 9.6 9.8m-495-52c1.5-5 8.8-7 16.6-9.1 6-1.6 12.6-3.4 14-6.4s-1.9-9.3-4.6-14.8c-3.7-7.1-7-13.8-4.4-18.3s10.2-5 18.1-5.4c6.2-.4 13.2-.7 15-3.4s.2-9.4-1.4-15.4c-2-7.7-4-15-.4-18.9q2.3-2.6 8-2.6a74 74 0 0 1 10.8 1.1 73 73 0 0 0 10.2 1.2q3.8 0 5.3-1.3c2.4-2.2 2-9.2 1.7-15.3-.4-8-.8-15.6 3.5-18.6a8 8 0 0 1 4.7-1.4c4 0 9 2 14 3.8a43 43 0 0 0 12.7 3.6 5 5 0 0 0 2.5-.6c2.8-1.6 3.9-8.5 4.8-14.5 1.3-8 2.5-15.4 7.3-17.6a7 7 0 0 1 2.9-.5c4.3 0 9.4 3.3 14.9 6.8 4.8 3.1 9.7 6.4 13 6.4l1.2-.2c3.1-1 5.6-7.5 7.8-13.2 3-7.5 5.7-14.6 10.8-15.7l1.4-.1c4.7 0 9.5 4.8 14.6 10 4.4 4.3 9.4 9.3 12.8 9s7.1-6.3 10.5-11.5c4.4-6.7 8.4-13 13.6-13s9.5 6.4 13.9 13.1c3.3 5.1 7.1 11 10.3 11.3h.4c3.3 0 8-4.8 12.3-9 5.2-5.1 10-10 14.7-10l1.4.1c5.1 1.1 7.8 8.2 10.7 15.7 2.2 5.7 4.7 12.2 7.8 13.2l1.2.2c3.3 0 8.3-3.2 13-6.3 5.5-3.5 10.7-6.9 15-6.9a7 7 0 0 1 2.8.6c4.9 2.1 6 9.6 7.3 17.5 1 6 2 13 4.9 14.6a5 5 0 0 0 2.5.6c3.3 0 8-1.9 12.7-3.6a44 44 0 0 1 14-3.8 8 8 0 0 1 4.7 1.3c4.2 3.1 3.9 10.7 3.4 18.6-.3 6.2-.6 13.2 1.8 15.4q1.4 1.3 5.3 1.3a72 72 0 0 0 10.2-1.2 73 73 0 0 1 10.7-1.2q5.7 0 8.1 2.7c3.5 4 1.6 11.2-.4 18.9-1.6 6-3.4 12.7-1.5 15.4s8.9 3 15 3.3c8 .5 15.6.9 18.2 5.4s-.8 11.2-4.4 18.3c-2.8 5.6-6 11.8-4.6 14.9s8 4.7 14 6.3c7.7 2.1 15 4.1 16.7 9.1s-3.1 10.8-8.1 17c-4 4.8-8.4 10.3-7.7 13.6a7 7 0 0 0 2.7 3.5l-5.4-.9-.8-1.9c-1-5 3.6-10.6 8.4-16.5 4-5 8.5-10.5 7.5-13.7s-8-5-14.3-6.7c-7.3-2-14.2-3.9-16.2-8.4s1.2-11 4.7-17.9c2.9-5.6 6.1-12 4.5-14.9s-9-3.3-15.3-3.6c-7.6-.4-14.8-.8-17.7-4.8s-1.1-11 .8-18.4c1.7-6.2 3.5-13.1 1.3-15.6q-1.4-1.5-5.5-1.5a71 71 0 0 0-10.2 1.1 74 74 0 0 1-10.7 1.2q-5.2 0-7.6-2.2c-3.7-3.3-3.4-10.5-3-18.2.3-6.3.7-13.5-2-15.5a5 5 0 0 0-2.7-.7c-3.3 0-8 1.8-12.7 3.6a44 44 0 0 1-14 3.8 8 8 0 0 1-4.2-1c-4.3-2.5-5.4-9.6-6.6-17.1-1-6.3-2.2-13.5-5.2-14.8L422 34c-3.3 0-8.3 3.2-13 6.3-5.5 3.5-10.7 6.8-15 6.8l-2.3-.3c-4.7-1.5-7.3-8.2-10-15.3-2.3-6-4.9-12.8-8.2-13.5s-8.3 4.4-12.8 8.9c-5.2 5.2-10 10-14.8 10h-.7c-5-.5-8.9-6.5-13-12.8-3.5-5.4-7.5-11.5-10.9-11.5s-7.2 6-10.6 11.3c-4.2 6.5-8.2 12.6-13.2 13.1s-10.1-4.5-15.5-10c-4.4-4.4-9.6-9.5-12.7-8.8-3.3.6-6 7.4-8.3 13.4-2.7 7.1-5.3 13.8-10 15.3l-2.2.3c-4.4 0-9.6-3.3-15-6.9-4.8-3-9.8-6.2-13-6.2l-1.4.2c-3.1 1.4-4.3 8.6-5.3 14.9-1.2 7.5-2.3 14.6-6.6 17a8 8 0 0 1-4.2 1c-4 0-9.1-1.9-14-3.7a43 43 0 0 0-12.7-3.6 5 5 0 0 0-2.7.7c-2.7 2-2.3 9.2-2 15.5.4 7.7.8 14.9-2.9 18.2q-2.4 2.2-7.7 2.2a74 74 0 0 1-10.7-1.2 72 72 0 0 0-10.1-1.1q-4.2 0-5.5 1.5c-2.2 2.4-.4 9.4 1.3 15.6 2 7.4 3.8 14.4.9 18.4s-10.2 4.4-17.8 4.8c-6.4.3-13.6.7-15.3 3.6s1.6 9.3 4.5 15c3.5 6.8 6.7 13.3 4.7 17.8s-9 6.4-16.3 8.4c-6.2 1.7-13.2 3.5-14.2 6.7s3.5 8.8 7.4 13.7c4.9 6 9.4 11.6 8.4 16.5l-.7 1.8-5.3.8a7 7 0 0 0 2.5-3.3c.7-3.3-3.7-8.7-7.6-13.6-5-6.2-9.7-12-8-17m-11.2 52c.4-3.7 3.9-6.5 8.4-9.1l.1 4c-2.7 1.8-4.7 3.6-5 5.5-.1 2.2 2.3 5 5.5 7.7l.1 4.9c-5.2-4.3-9.5-8.5-9-13M13.9 386.5s13-38.2 15.1-46.5-.8-16.5-.8-16.5L7 285.6c22.3-13.3 68.5-20.3 68.5-20.3l5.2 83.5v2.1c17.9 3 45 11.2 45 11.2-42.6.9-112 24.4-112 24.4m523.5-14c3.6 7 7 13.8 4.4 18.3s-10.2 5-18.2 5.4c-6.1.3-13.1.7-15 3.4s-.2 9.4 1.4 15.3c2 7.8 4 15 .5 19q-2.4 2.6-8.1 2.6a74 74 0 0 1-10.7-1.2 71 71 0 0 0-10.2-1q-3.9 0-5.3 1.2c-2.4 2.2-2 9.2-1.7 15.3.4 8 .8 15.6-3.5 18.7a8 8 0 0 1-4.8 1.3c-4 0-9-2-13.9-3.8a43 43 0 0 0-12.7-3.6 5 5 0 0 0-2.5.6c-2.8 1.6-4 8.5-4.9 14.6-1.2 7.9-2.4 15.4-7.3 17.5a7 7 0 0 1-2.8.6c-4.3 0-9.5-3.3-14.9-6.9-4.8-3-9.8-6.3-13.1-6.3l-1.2.2c-3 1-5.6 7.4-7.8 13.1-2.9 7.5-5.6 14.6-10.8 15.7l-1.3.1c-4.7 0-9.5-4.8-14.7-9.9-4.2-4.2-9-9-12.4-9h-.3c-3.3.3-7.2 6.2-10.6 11.4-4.3 6.7-8.4 13-13.6 13-5.3 0-9.4-6.4-13.8-13.1-3.4-5.2-7.2-11-10.4-11.3h-.3c-3.3 0-8.1 4.8-12.3 9-5.2 5.1-10 10-14.8 10l-1.3-.1c-5.2-1.1-7.9-8.2-10.8-15.7-2.2-5.7-4.7-12.2-7.8-13.2l-1.1-.2c-3.3 0-8.3 3.2-13.1 6.3-5.4 3.5-10.6 6.9-15 6.9a7 7 0 0 1-2.8-.6c-4.8-2.2-6-9.6-7.2-17.5-1-6.1-2.1-13-5-14.6a5 5 0 0 0-2.4-.6 43 43 0 0 0-12.7 3.6 44 44 0 0 1-14 3.8 8 8 0 0 1-4.8-1.3c-4.2-3.1-3.8-10.7-3.4-18.6.3-6.2.6-13.2-1.8-15.4q-1.5-1.2-5.2-1.3a73 73 0 0 0-10.2 1.2 73 73 0 0 1-10.8 1.2q-5.7 0-8.1-2.7c-3.5-4-1.6-11.2.5-18.9 1.6-6 3.4-12.7 1.4-15.4s-8.9-3-15-3.3c-8-.5-15.5-.9-18.2-5.4s.8-11.3 4.4-18.3l1.8-3.6 4.2-.5-2.8 5.7c-2.9 5.6-6.1 12-4.5 14.9s9 3.3 15.3 3.6c7.6.4 14.8.8 17.7 4.8s1.1 11-.9 18.4c-1.6 6.2-3.4 13.1-1.2 15.6q1.3 1.5 5.5 1.5a71 71 0 0 0 10.1-1.1 73 73 0 0 1 10.8-1.2q5.2 0 7.6 2.2c3.7 3.3 3.3 10.5 3 18.2-.4 6.3-.7 13.5 2 15.5a5 5 0 0 0 2.6.7c3.4 0 8.1-1.8 12.7-3.6 5-1.9 10-3.8 14-3.8a8 8 0 0 1 4.3 1c4.3 2.5 5.4 9.6 6.6 17.1 1 6.3 2.1 13.5 5.2 14.8l1.4.3c3.3 0 8.2-3.2 13-6.3 5.5-3.5 10.6-6.9 15-6.9l2.2.4c4.7 1.5 7.3 8.2 10 15.3 2.3 6 5 12.8 8.2 13.5h.6c3.3 0 8-4.7 12.2-8.9 5.2-5.2 10-10 14.9-10h.7c4.9.5 8.8 6.5 13 12.8 3.5 5.4 7.4 11.5 10.8 11.5 3.3 0 7.2-6 10.6-11.3 4.2-6.5 8.2-12.6 13.2-13.1h.7c4.8 0 9.8 4.9 15 10 4.1 4.3 8.9 9 12 9h.7c3.3-.8 6-7.5 8.2-13.5 2.8-7.1 5.4-13.8 10-15.3l2.3-.4c4.4 0 9.5 3.4 15 7 4.8 3 9.7 6.2 13 6.2l1.4-.2c3-1.4 4.2-8.5 5.2-14.9 1.2-7.5 2.3-14.6 6.6-17a8 8 0 0 1 4.3-1c4 0 9 1.9 14 3.7 4.6 1.8 9.3 3.6 12.6 3.6a5 5 0 0 0 2.7-.7c2.7-2 2.3-9.2 2-15.5-.4-7.7-.8-14.9 3-18.2q2.3-2.2 7.6-2.2A74 74 0 0 1 492 432a70 70 0 0 0 10.2 1.1q4.1 0 5.5-1.5c2.2-2.5.3-9.4-1.3-15.6-2-7.4-3.8-14.4-1-18.4s10.2-4.4 17.8-4.8c6.4-.3 13.6-.7 15.3-3.6s-1.6-9.3-4.5-15l-2.6-5.5 4.2.6zm75.1-32.5c2.3 8.4 15.1 46.6 15.1 46.6s-69.3-23.6-112-24.5c0 0 27.2-8.2 45-11.2v-.4l.1-3.4 5.2-81.8s46.2 7 68.4 20.3l-20.9 37.8s-3 8.2-.9 16.6" style="fill:#13457b"/><path d="m119.6 300.5 3.9-.8 2.3-.9a9 9 0 0 0 2.4-1.5l1.3-1.7.5-2-.1-2.5a7 7 0 0 0-1.6-3.6 5 5 0 0 0-2.9-1.6l-2-.1-3.5.4-6.4 1.1 2.5 13.8Zm2.3-39a4 4 0 0 0-2.7-1.5h-1.8l-3.2.3-5.3 1 2.2 12.3 6-1a11 11 0 0 0 4.4-1.5 4 4 0 0 0 1.7-2.3 9 9 0 0 0 .2-3.8 8 8 0 0 0-1.5-3.5m283.9 24.3a11 11 0 0 0 9.5.7 12 12 0 0 0 4.4-3.4 21 21 0 0 0 3.4-6.4 39 39 0 0 0 2-9.7 38 38 0 0 0-.3-9.9 21 21 0 0 0-2.4-7 11 11 0 0 0-3.9-4 11 11 0 0 0-14.3 2.6 21 21 0 0 0-3.5 6.6 38 38 0 0 0-1.7 9.7 39 39 0 0 0 .5 9.9 21 21 0 0 0 2.5 6.9 12 12 0 0 0 3.8 4" style="fill:#fff"/><path d="M86 343.9c115-25.5 234.7-26.1 234.7-26.1s119.8.6 234.7 26l4.2-118-7.1-1.1-.8-.1-.8-.2-.8-.1-1-.1-.8-.2-1-.1-.9-.2-1.1-.1-.9-.2-1.2-.2-1-.1-1.2-.1-1-.1-1.3-.2-1.1-.2-1.4-.2-1.1-.2-1.4-.2-1.3-.2-1.4-.2-1.4-.1-1.5-.3-1.4-.1-1.6-.3-1.4-.2-4.8-.6-1.6-.2-1.7-.2-1.6-.3-1.9-.2-1.6-.2-1.9-.2-1.7-.2-1.9-.3-1.7-.2-2-.2-1.8-.3-2-.2-2-.2-2-.3-1.8-.2-2.1-.2-2-.3-2.1-.2-2-.2-2.2-.2-2-.3-2.3-.2-2.1-.2-2.3-.3-2.1-.2-2.3-.2-2.2-.2-2.3-.3-2.3-.2-2.3-.2-2.3-.2-2.3-.2-2.5-.3-2.3-.2-2.4-.2-2.3-.2-2.2-.2-4-.3-1.2-.1-2.4-.2-2.6-.2-2.4-.2-2.6-.2-2.5-.2-2.7-.2-2.4-.2-2.7-.2-2.5-.2-2.8-.1-2.4-.2-2.9-.2-2.4-.1-2.9-.2-2.4-.1-3-.2-2.4-.1-3-.2-2.5-.1-3-.1-2.4-.2h-3l-2.5-.2-3.1-.1-2.5-.1-3-.1-2.5-.1-3.1-.1h-2.5l-3.2-.2h-5.8l-2.3-.1-3.4-.1H296l-3.7.1h-2l-3.7.1h-2l-3.7.1h-2l-3.6.2h-2l-3.6.2h-2l-3.5.2h-2l-3.6.2-1.8.1-3.6.2h-1.8l-3.7.3H246l-3.7.3h-1.7l-3.6.3h-1.7l-3.6.3H230l-3.6.3-1.6.1-3.6.3-1.5.1-3.6.3h-1.5l-3.6.3-1.5.2-3.5.2-1.5.2h-.5q-2.3 0-4.4.3l-3.5.3-1.3.1-3.5.3-1.3.2-3.5.3-1.3.1-3.3.3-1.3.1-3.3.4H176l-3.3.4-1.1.1-3.3.4H167l-3.2.4-1 .2-3.3.3-1 .1-3.2.4h-1l-3 .4-1 .1-3 .4-1 .1-3 .4h-1l-3 .4-.8.1-2.9.4h-.8l-2.7.4-.9.1-2.6.4h-.8l-2.7.4-.7.1-1.7.2-3.8.6h-.9l-2.4.4h-.7l-2.3.4h-.6l-2.3.4h-.5l-2.2.4h-.5l-2.1.4h-.4l-2 .3h-.4l-1.9.4h-.4l-1.8.3h-.4l-1.8.3h-.2l-1.8.3h-.1l-1.6.2h-.2l-1 .2-8.6 1.4ZM552.6 250l-2.6 13.7-24.5-4.4-2 12.4 20.7 3.7-2.5 13.7c-8.2-1.6-12.3-2.3-20.6-3.7l-2.3 13.8q12.5 2.1 25 4.5l-2.6 13.7q-19.4-3.6-38.8-6.7l10.5-67.5q19.9 3.2 39.7 6.8m-81.5-2.8a27 27 0 0 1 10.6-6.7 29 29 0 0 1 13.6-1.2 39 39 0 0 1 7 1.6 30 30 0 0 1 5.8 2.7l1.3.8-2.2 14.3-3.4-2a30 30 0 0 0-5.1-2.3 27 27 0 0 0-4.8-1 13 13 0 0 0-11.5 3.6 20 20 0 0 0-4.3 6.4 34 34 0 0 0-2.5 9.4 35 35 0 0 0 0 9.6 19 19 0 0 0 2.2 6.9 12 12 0 0 0 4 4.2 15 15 0 0 0 5.9 2 30 30 0 0 0 5.4.2 27 27 0 0 0 5.3-.7l3.8-1-2.2 14.7-1.6.3a39 39 0 0 1-6.4.7 40 40 0 0 1-7-.4 30 30 0 0 1-12-4.2 26 26 0 0 1-8.1-8.3 32 32 0 0 1-4-11.4 53 53 0 0 1 3.3-27.4 35 35 0 0 1 7-10.8Zm-9.5-11-7.7 68-14.2-1.6 6.8-68zm-77.6 28a51 51 0 0 1 2.5-13.8 33 33 0 0 1 6-10.8 25 25 0 0 1 9.4-7 29 29 0 0 1 25 1.8 25 25 0 0 1 8.4 8.3 33 33 0 0 1 4.3 11.6 51 51 0 0 1 .4 14 53 53 0 0 1-3.1 13.7 35 35 0 0 1-6.2 10.6 25.7 25.7 0 0 1-41-3A35 35 0 0 1 385 278a53 53 0 0 1-1-13.9m-51.3-35.7c6 0 9 0 15.1.2l-.5 26.5c7.7.1 11.5.2 19.2.5l1-26.4 15.1.6-3.3 68.3-14.2-.6 1-28-19-.5-.7 28-14.2-.3zm-46 21.7a35 35 0 0 1 5.4-11.6 27 27 0 0 1 9.4-8.2 29 29 0 0 1 13.3-3.1 38 38 0 0 1 7.1.6 30 30 0 0 1 6.2 1.7l1.4.6-.1 14.5-3.7-1.4a30 30 0 0 0-5.4-1.6 28 28 0 0 0-4.8-.4 13 13 0 0 0-10.8 5.4 21 21 0 0 0-3.3 6.9 34 34 0 0 0-1.1 9.7 36 36 0 0 0 1.3 9.5 19 19 0 0 0 3.2 6.5 12 12 0 0 0 4.6 3.6 15 15 0 0 0 6 1.1 30 30 0 0 0 5.5-.5 26 26 0 0 0 5.1-1.6l3.7-1.4-.1 14.8-1.5.5A40 40 0 0 1 315 298a30 30 0 0 1-12.6-2.4 26 26 0 0 1-9.3-7 32 32 0 0 1-5.6-10.7 53 53 0 0 1-.7-27.7Zm-12.1-20.8.5 14c-6.8.2-10.2.3-17 .7l2.8 54.4-14.2.8L243 245l-17.1 1.2-1.2-13.9q25-1.8 49.8-3ZM186 247.5a19 19 0 0 1 3.7-7.4 19 19 0 0 1 6.5-5 26 26 0 0 1 8.7-2.2 41 41 0 0 1 9.4.2 36 36 0 0 1 8.4 2.1l1.2.5 1.2 14.8-4-1.5a36 36 0 0 0-7.5-2 28 28 0 0 0-6.5-.2q-3.7.3-5.4 2c-1.7 1.7-1.6 2.8-1.3 5a7 7 0 0 0 1 3.2 5 5 0 0 0 1.8 1.7 10 10 0 0 0 2.7 1l4 .7 6.8 1.5a20 20 0 0 1 6.5 3 16 16 0 0 1 4.7 5.7 23 23 0 0 1 2.2 8.8 26 26 0 0 1-.9 9.8 19 19 0 0 1-4.3 7.4 21 21 0 0 1-7.4 4.8 34 34 0 0 1-9.4 2.2 38 38 0 0 1-9-.2 24 24 0 0 1-7.9-2.4l-1-.5-1.6-14.7 4.1 1.7a32 32 0 0 0 7.1 2 27 27 0 0 0 6.8.2l3.7-.8a9 9 0 0 0 2.8-1.4 6 6 0 0 0 1.8-2.5 8 8 0 0 0 .5-3.9 6 6 0 0 0-1-3 5 5 0 0 0-2-1.5l-3.3-1-4.3-.7a49 49 0 0 1-6.4-1.5 19 19 0 0 1-6-3 17 17 0 0 1-4.5-5.3 22 22 0 0 1-2.3-8 26 26 0 0 1 .5-9.6Zm-6-10.8 1.7 13.9-24.6 3 1.7 12.5c8.3-1.2 12.5-1.7 20.9-2.7l1.6 13.9-20.7 2.6 2 13.9q12.5-1.7 25.1-3.2l1.6 13.9q-19.5 2.3-39 5.1l-10-67.6q19.9-2.9 39.9-5.3Zm-67.5 9.8a30 30 0 0 1 11-.2 18 18 0 0 1 10.3 6 18 18 0 0 1 2.8 4.5 19 19 0 0 1 1.5 5 21 21 0 0 1-.4 8.4 15 15 0 0 1-2.8 5.4l1.6.8a15 15 0 0 1 3.8 3 16 16 0 0 1 2.6 4 20 20 0 0 1 1.6 5.3 25 25 0 0 1 .1 5.5 20 20 0 0 1-1.4 6 21 21 0 0 1-3.6 5.8 21 21 0 0 1-6.4 4.9 33 33 0 0 1-8.1 2.7l-3.8.7-17 3.2-12.9-67.2c8.5-1.6 12.7-2.4 21.1-3.8" style="fill:#fff"/><path d="m121.4 314.3 7-1.5a32 32 0 0 0 5-2 21 21 0 0 0 6.4-4.8 21 21 0 0 0 3.5-5.8 20 20 0 0 0 1.5-6 25 25 0 0 0-.2-5.5 20 20 0 0 0-1.5-5.2 16 16 0 0 0-2.7-4.1 15 15 0 0 0-3.8-3l-1.6-.8a15 15 0 0 0 2.8-5.4 21 21 0 0 0 .4-8.5 19 19 0 0 0-1.4-5 18 18 0 0 0-2.9-4.5 18 18 0 0 0-10.3-5.9 30 30 0 0 0-11 .2c-8.4 1.4-12.6 2.2-21 3.8l12.7 67.2zm-1.4-28 3.5-.5 2 .1a5 5 0 0 1 3 1.6 7 7 0 0 1 1.5 3.6v2.5l-.5 2a6 6 0 0 1-1.3 1.8 9 9 0 0 1-2.3 1.4l-2.4.9-3.8.8-3.7.7-2.4-13.8zm3.3-17.5a4 4 0 0 1-1.7 2.4 11 11 0 0 1-4.4 1.4l-6 1-2.3-12.3 5.4-1 3.1-.3h1.9a4 4 0 0 1 2.6 1.5 8 8 0 0 1 1.5 3.6 9 9 0 0 1-.2 3.7Zm66.1 35.7-1.6-13.9q-12.6 1.5-25.1 3.2l-2-13.9 20.7-2.6-1.6-13.9-21 2.7-1.6-12.4c9.8-1.4 14.7-2 24.6-3.1l-1.6-13.9q-20 2.4-39.9 5.3l10.1 67.6q19.5-2.8 39-5.1m-1.4-39.3a17 17 0 0 0 4.5 5.3 19 19 0 0 0 6 3 49 49 0 0 0 6.3 1.5l4.4.7 3.3 1a5 5 0 0 1 2 1.6 6 6 0 0 1 1 2.9 8 8 0 0 1-.5 3.9 6 6 0 0 1-1.8 2.4 9 9 0 0 1-2.8 1.5l-3.7.7a27 27 0 0 1-6.8-.1 32 32 0 0 1-7-2l-4.2-1.7 1.7 14.6 1 .5a24 24 0 0 0 7.8 2.5 38 38 0 0 0 9 .2 34 34 0 0 0 9.4-2.2 21 21 0 0 0 7.4-4.9 19 19 0 0 0 4.3-7.4 26 26 0 0 0 1-9.7 23 23 0 0 0-2.3-8.8 16 16 0 0 0-4.7-5.7 20 20 0 0 0-6.5-3 62 62 0 0 0-6.9-1.5l-3.9-.7a10 10 0 0 1-2.7-1 5 5 0 0 1-1.9-1.8 7 7 0 0 1-1-3.1q-.3-3.5 1.4-5.1c1.7-1.6 2.9-1.8 5.4-2a28 28 0 0 1 6.4.2 36 36 0 0 1 7.6 2l4 1.5-1.2-14.7-1.2-.6a36 36 0 0 0-8.4-2 41 41 0 0 0-9.4-.3 26 26 0 0 0-8.7 2.3 19 19 0 0 0-6.5 5 19 19 0 0 0-3.7 7.3 26 26 0 0 0-.5 9.6 22 22 0 0 0 2.4 8.1m55.1-20.2 3.6 54.3 14.2-.8-2.8-54.4 17-.8-.5-14q-24.9 1.2-49.7 3l1 14c7-.6 10.4-.9 17.2-1.3m44.4 32.9a32 32 0 0 0 5.6 10.6 26 26 0 0 0 9.3 7A30 30 0 0 0 315 298a40 40 0 0 0 13.1-2.2l1.5-.6v-14.8L326 282a26 26 0 0 1-5.1 1.6 30 30 0 0 1-5.4.5 15 15 0 0 1-6-1.1 12 12 0 0 1-4.7-3.6 19 19 0 0 1-3.2-6.5 36 36 0 0 1-1.3-9.5 34 34 0 0 1 1-9.7 21 21 0 0 1 3.4-7 13 13 0 0 1 10.8-5.3 28 28 0 0 1 4.8.4 30 30 0 0 1 5.4 1.6l3.7 1.4v-14.5l-1.3-.6a30 30 0 0 0-6.2-1.7 38 38 0 0 0-7-.6 29 29 0 0 0-13.4 3.1 27 27 0 0 0-9.4 8.2 35 35 0 0 0-5.3 11.6 53 53 0 0 0 .7 27.7Zm59.5-8.8 19 .5-1 28 14.3.6 3.3-68.3-15-.6-1 26.4-19.3-.5.5-26.5-15.1-.2-.6 68.4c5.8 0 8.6 0 14.3.2Zm42.6 20.5a25.7 25.7 0 0 0 41.1 3 35 35 0 0 0 6.2-10.5 53 53 0 0 0 3.1-13.7 51 51 0 0 0-.4-14 33 33 0 0 0-4.3-11.6 25 25 0 0 0-8.3-8.3 29 29 0 0 0-25-1.9 25 25 0 0 0-9.5 7 33 33 0 0 0-6 10.8 51 51 0 0 0-2.5 13.8 54 54 0 0 0 1 14 35 35 0 0 0 4.6 11.4m9.4-24.5a38 38 0 0 1 1.8-9.8 21 21 0 0 1 3.4-6.5 11 11 0 0 1 18.2 1.4 21 21 0 0 1 2.4 7 38 38 0 0 1 .3 9.9 39 39 0 0 1-2 9.7 21 21 0 0 1-3.4 6.4 12 12 0 0 1-4.3 3.3 11 11 0 0 1-9.6-.7 12 12 0 0 1-3.8-4 21 21 0 0 1-2.5-6.8 39 39 0 0 1-.5-10m40.7 37.7 14.2 1.5 7.7-68-15-1.5zm21.1-17.3a32 32 0 0 0 4 11.4 26 26 0 0 0 8.1 8.3 30 30 0 0 0 12.2 4.3 40 40 0 0 0 7 .4 39 39 0 0 0 6.3-.7l1.6-.3 2.2-14.7-3.8 1a27 27 0 0 1-5.3.7 30 30 0 0 1-5.4-.2 15 15 0 0 1-5.9-2 12 12 0 0 1-4-4.3 19 19 0 0 1-2.2-6.8 35 35 0 0 1 0-9.6 34 34 0 0 1 2.5-9.5 20 20 0 0 1 4.3-6.3 13 13 0 0 1 11.6-3.7 27 27 0 0 1 4.7 1 30 30 0 0 1 5.1 2.4l3.5 2 2.2-14.4-1.3-.8a30 30 0 0 0-5.9-2.6 39 39 0 0 0-7-1.6 29 29 0 0 0-13.6 1.2 27 27 0 0 0-10.6 6.6 35 35 0 0 0-7 10.8 53 53 0 0 0-3.3 27.4m80.4 32.1 2.6-13.7q-12.5-2.4-25-4.5l2.3-13.8c8.3 1.3 12.4 2 20.6 3.6l2.5-13.7-20.8-3.7 2.1-12.3c9.8 1.6 14.7 2.5 24.5 4.3l2.6-13.7q-19.8-3.6-39.7-6.8l-10.5 67.5q19.4 3.2 38.8 6.8" style="fill:#13457b"/><path d="m327.2 166.1-6.5-20-6.5 20H293l17 12.4-6.5 20.1 17.1-12.4 17.1 12.4-6.5-20 17-12.5zm49 11.2-4.7-14.4-4.7 14.4h-15l12.1 8.9-4.6 14.3 12.2-8.8 12.2 8.8-4.6-14.3 12.2-9zm42.1 12.5h-9.7l-3-9.3-3 9.3h-9.8l7.9 5.7-3 9.2 7.9-5.7 7.8 5.7-3-9.2zm-169.7 0h-9.7l-3-9.3-3 9.3H223l7.9 5.7-3 9.2 7.9-5.7 7.8 5.7-3-9.2zm26-12.5-4.7-14.4-4.6 14.4H250l12.3 8.9-4.7 14.3 12.2-8.8 12.2 8.8-4.6-14.3 12.2-9zm39.6 187.4 6.5 20 6.5-20h21.2l-17.1-12.5 6.5-20-17 12.4-17.2-12.5 6.5 20.1-17 12.5zm52.6-11.2 4.7 14.4 4.7-14.4h15l-12.1-8.9 4.6-14.3-12.2 8.8-12.2-8.8 4.6 14.3-12.2 8.9zm26-12.5h9.8l3 9.3 3-9.3h9.7l-7.9-5.7 3-9.2-7.8 5.7-7.9-5.7 3 9.2zm-169.7 0h9.8l3 9.3 3-9.3h9.7l-7.9-5.7 3-9.2-7.8 5.7-7.9-5.7 3 9.2zm42.2 12.5 4.6 14.4 4.7-14.4h15l-12.1-8.9 4.6-14.3L270 339l-12.2-8.8 4.7 14.3-12.2 8.9z" style="fill:#fff"/></g></g></g></g></svg>