<svg xmlns="http://www.w3.org/2000/svg" viewBox="0 0 641.38 527.11"><title>logo</title><g id="Layer_2" data-name="Layer 2"><g id="Layer_1-2" data-name="Layer 1"><g id="Layer_2-2" data-name="Layer 2"><g id="Слой_1" data-name="Слой 1"><path d="M238.82,405.65a24.56,24.56,0,0,0,3.63,1.9,10,10,0,0,0,2.51.71,4.12,4.12,0,0,0,2.94-.61,7.63,7.63,0,0,0,2.81-5.34,3.62,3.62,0,0,0-.66-2.18,7.55,7.55,0,0,0-1.48-1.56,26,26,0,0,0-2.88-2c-1.19-.72-1.79-1.09-3-1.85-2.26,3.92-3.4,5.87-5.67,9.78C237.75,405,238.1,405.21,238.82,405.65Z" style="fill:#13457b"/><path d="M404.38,102.64c-3.25-1.62-7.54,1.33-11,8.94-3.34,7.28-3.28,12.28-.33,13.76,3.28,1.64,7.2-1.84,11-8.75C407.6,109.94,408.31,104.61,404.38,102.64Z" style="fill:#13457b"/><path d="M314.87,427.35a4,4,0,0,0,1.36-1.77,7.3,7.3,0,0,0,.51-2.61,6.58,6.58,0,0,0-.53-3,3.77,3.77,0,0,0-1.85-1.74,7.67,7.67,0,0,0-1.93-.58,27.23,27.23,0,0,0-3.25-.41l-2.32-.22c-.41,4.54-.62,6.81-1,11.34H306c.6.09,1.23.16,1.88.22a15.25,15.25,0,0,0,4.42-.17A6.66,6.66,0,0,0,314.87,427.35Z" style="fill:#13457b"/><path d="M215.48,122.28c-1.45-2-4.19-3.2-7.26-.82-2.84,2.19-2.89,5.23-1.23,7.28,1.91,2.37,6.16,2.41,8.11.8C216.59,128.31,217.12,124.54,215.48,122.28Z" style="fill:#13457b"/><path d="M215.92,140.88a5.61,5.61,0,0,0,7.86,1.11l.14-.11a5.36,5.36,0,0,0,1.4-7.45,3.06,3.06,0,0,0-.21-.29c-2.15-3-6.78-3.4-9.12-1.56C214,134.2,214.14,138.63,215.92,140.88Z" style="fill:#13457b"/><path d="M320.71,108.48c3.58,0,5.46-4.91,5.68-12.76.22-7.57-1.5-12.63-5.8-12.61-3.55,0-6,4.58-5.68,13C315.22,104.05,317.48,108.5,320.71,108.48Z" style="fill:#13457b"/><path d="M343.15,424.16c-.43,2.8-.88,5.29-1.33,7.43-.2,1-.31,1.48-.52,2.46,2.49-.31,3.73-.49,6.21-.91-.46-.88-.69-1.33-1.14-2.22C345.38,429,344.29,426.72,343.15,424.16Z" style="fill:#13457b"/><path d="M251,97c-3.33,1.37-3.93,6.53-.47,14.17,3.29,7.29,7.1,10.54,10.13,9.29,3.37-1.38,3.29-6.62.55-14C258.52,99.39,255,95.35,251,97Z" style="fill:#13457b"/><path d="M229,107.8c-3.17,1.83-3.11,7,1.33,14.17,4.23,6.78,8.46,9.48,11.34,7.82,3.2-1.85,2.45-7-1.24-14C236.88,109.12,232.83,105.59,229,107.8Z" style="fill:#13457b"/><path d="M399.08,401.2a6.62,6.62,0,0,0-1.8-2.14,3.31,3.31,0,0,0-2.11-.59,7.23,7.23,0,0,0-2.06.45,23.93,23.93,0,0,0-3.12,1.46c-1.23.66-1.84,1-3.08,1.6l4.76,10.31,1.84-1a24.86,24.86,0,0,0,3.48-2.15,10.09,10.09,0,0,0,1.92-1.83,4.61,4.61,0,0,0,1.12-2.92A7.17,7.17,0,0,0,399.08,401.2Z" style="fill:#13457b"/><path d="M564.73,231.23c3.3,2,5.88,4.05,6.1,6.15.27,2.55-2.91,5.81-6.63,9l-.17,4.77c5.76-4.7,10.86-9.2,10.34-14.15-.42-4-4.45-7-9.5-9.8Z" style="fill:#fff"/><path d="M95,215.47a6.56,6.56,0,0,1-2.47,3.3l5.31-.81a6.81,6.81,0,0,0,.64-1.75c1-4.9-3.51-10.53-8.33-16.5-4-4.94-8.5-10.54-7.48-13.68s8-5.06,14.2-6.72c7.37-2,14.32-3.85,16.34-8.37s-1.23-11-4.69-17.83c-2.88-5.68-6.13-12.11-4.48-15s8.89-3.27,15.26-3.61c7.63-.41,14.84-.79,17.76-4.81s1.06-11-.9-18.39c-1.64-6.16-3.5-13.14-1.28-15.61.9-1,2.74-1.49,5.48-1.49a72.4,72.4,0,0,1,10.17,1.12,74.15,74.15,0,0,0,10.72,1.17c3.51,0,6-.72,7.67-2.21,3.69-3.32,3.31-10.52,2.92-18.14-.33-6.38-.7-13.6,2-15.57a4.45,4.45,0,0,1,2.68-.68c3.3,0,8,1.81,12.66,3.57,4.92,1.87,10,3.81,14,3.81a8.38,8.38,0,0,0,4.25-1c4.28-2.47,5.42-9.57,6.62-17.09,1-6.32,2.15-13.48,5.22-14.85a3.45,3.45,0,0,1,1.38-.26c3.27,0,8.2,3.19,13,6.28,5.49,3.56,10.67,6.91,15,6.91a7.18,7.18,0,0,0,2.25-.34c4.68-1.51,7.27-8.2,10-15.29,2.31-6,4.94-12.77,8.25-13.47,3.14-.66,8.27,4.41,12.72,8.85,5.46,5.45,10.65,10.58,15.63,10.06s9-6.63,13.19-13.08c3.44-5.3,7.35-11.3,10.61-11.3s7.36,6.09,10.86,11.46c4.15,6.36,8.08,12.36,13,12.87a4.09,4.09,0,0,0,.7,0c4.78,0,9.67-4.89,14.86-10.06,4.47-4.46,9.6-9.55,12.79-8.87s5.89,7.46,8.19,13.43c2.74,7.11,5.32,13.82,10,15.35a7.18,7.18,0,0,0,2.25.34c4.37,0,9.54-3.34,15-6.87,4.77-3.09,9.72-6.28,13-6.28a3.35,3.35,0,0,1,1.4.26c3.05,1.37,4.19,8.51,5.19,14.82,1.2,7.53,2.33,14.65,6.63,17.14a8.35,8.35,0,0,0,4.24,1c4,0,9.05-1.94,14-3.82C458,61.77,462.8,60,466.11,60a4.46,4.46,0,0,1,2.69.68c2.69,2,2.33,9.17,2,15.54-.39,7.63-.75,14.84,2.95,18.17,1.64,1.48,4.13,2.2,7.63,2.2a74.3,74.3,0,0,0,10.73-1.18,71.39,71.39,0,0,1,10.2-1.14c2.78,0,4.57.49,5.48,1.5,2.21,2.46.37,9.43-1.27,15.57-2,7.4-3.81,14.39-.88,18.43s10.11,4.38,17.72,4.79c6.38.34,13.62.72,15.29,3.62s-1.6,9.27-4.48,14.93c-3.47,6.84-6.74,13.3-4.71,17.87s8.94,6.38,16.28,8.36c6.19,1.68,13.2,3.57,14.24,6.77s-3.51,8.69-7.49,13.62c-4.83,6-9.4,11.62-8.36,16.54a7.14,7.14,0,0,0,.74,1.94l5.46.84a7,7,0,0,1-2.72-3.51c-.69-3.27,3.74-8.75,7.65-13.58,5-6.17,9.7-12,8.1-16.94s-8.94-7-16.69-9.11c-5.92-1.6-12.64-3.41-14-6.38s1.83-9.28,4.63-14.81c3.61-7.1,7-13.8,4.39-18.32s-10.19-5-18.18-5.39c-6.15-.33-13.11-.7-15-3.34s-.14-9.44,1.44-15.41c2-7.71,4-15,.47-18.88-1.62-1.79-4.28-2.67-8.12-2.67a73.19,73.19,0,0,0-10.75,1.18A72.38,72.38,0,0,1,481.38,93c-2.54,0-4.31-.43-5.25-1.28-2.45-2.2-2.09-9.19-1.78-15.35.41-8,.79-15.5-3.45-18.59a8.07,8.07,0,0,0-4.79-1.37c-4,0-9,1.94-13.95,3.81-4.62,1.76-9.39,3.58-12.7,3.58a4.89,4.89,0,0,1-2.46-.53c-2.83-1.64-3.93-8.54-4.9-14.62-1.25-7.9-2.44-15.36-7.25-17.5a6.83,6.83,0,0,0-2.85-.58c-4.33,0-9.48,3.33-14.93,6.85-4.81,3.1-9.77,6.31-13.09,6.31a3.73,3.73,0,0,1-1.15-.17c-3.09-1-5.59-7.51-7.8-13.24-2.88-7.48-5.6-14.55-10.77-15.64a6.8,6.8,0,0,0-1.35-.14c-4.7,0-9.55,4.84-14.69,10-4.24,4.23-9.05,9-12.35,9h-.33c-3.21-.34-7-6.15-10.36-11.29-4.39-6.72-8.53-13.07-13.85-13.07s-9.26,6.28-13.58,12.92c-3.4,5.21-7.25,11.13-10.58,11.48s-8.35-4.65-12.74-9c-5.13-5.11-10-9.94-14.65-9.94a6.59,6.59,0,0,0-1.33.13c-5.19,1.1-7.93,8.18-10.83,15.67-2.21,5.72-4.71,12.2-7.79,13.19a3.73,3.73,0,0,1-1.15.17c-3.33,0-8.31-3.23-13.12-6.34-5.44-3.53-10.58-6.86-14.9-6.86a6.89,6.89,0,0,0-2.83.57c-4.83,2.15-6,9.62-7.28,17.54-1,6.07-2.07,12.95-4.89,14.58a4.9,4.9,0,0,1-2.47.53c-3.33,0-8.1-1.82-12.73-3.59-4.9-1.86-10-3.8-13.92-3.8a7.9,7.9,0,0,0-4.78,1.37c-4.26,3.09-3.86,10.64-3.45,18.62.32,6.16.68,13.13-1.75,15.32-.95.86-2.73,1.3-5.29,1.3a72.39,72.39,0,0,1-10.18-1.13,74.17,74.17,0,0,0-10.71-1.17c-3.84,0-6.5.87-8.12,2.67-3.51,3.91-1.57,11.19.48,18.91,1.59,6,3.39,12.72,1.46,15.38s-8.91,3-15.07,3.35c-8,.42-15.51.83-18.14,5.38s.77,11.25,4.38,18.36c2.79,5.52,6,11.77,4.61,14.78s-8.06,4.79-14,6.39c-7.73,2.07-15,4-16.66,9s3.1,10.82,8.09,17C91.29,206.76,95.7,212.23,95,215.47Z" style="fill:#fff"/><path d="M534.13,374.07c2.87,5.68,6.13,12.11,4.47,15s-8.89,3.27-15.26,3.61c-7.62.4-14.83.79-17.75,4.8s-1.07,11,.9,18.39c1.64,6.16,3.5,13.14,1.27,15.61-.89,1-2.73,1.5-5.48,1.5a70.66,70.66,0,0,1-10.16-1.13,74.15,74.15,0,0,0-10.72-1.17c-3.52,0-6,.73-7.67,2.21-3.69,3.33-3.32,10.53-2.92,18.15.33,6.37.7,13.6-2,15.56a4.46,4.46,0,0,1-2.68.69c-3.3,0-8.06-1.82-12.66-3.57-4.92-1.88-10-3.82-14-3.82a8.34,8.34,0,0,0-4.26,1c-4.28,2.48-5.41,9.58-6.61,17.1-1,6.32-2.15,13.48-5.22,14.85a3.47,3.47,0,0,1-1.39.26c-3.26,0-8.19-3.19-13-6.28-5.49-3.56-10.67-6.92-15.05-6.92a7.49,7.49,0,0,0-2.25.34c-4.69,1.52-7.28,8.21-10,15.29-2.32,6-4.94,12.77-8.25,13.47a2.88,2.88,0,0,1-.59.06c-3.22,0-8-4.73-12.14-8.91-5.2-5.19-10.11-10.09-14.92-10.09h-.7c-5,.52-9,6.62-13.19,13.08-3.45,5.3-7.35,11.3-10.61,11.3h0c-3.39,0-7.36-6.09-10.87-11.46-4.15-6.36-8.07-12.37-13-12.88h-.69c-4.78,0-9.68,4.88-14.86,10.06-4.2,4.18-9,8.93-12.19,8.93a3.05,3.05,0,0,1-.6-.06c-3.29-.7-5.89-7.47-8.19-13.44-2.74-7.11-5.33-13.82-10-15.35a7.49,7.49,0,0,0-2.25-.34c-4.36,0-9.54,3.34-15,6.88-4.78,3.09-9.72,6.28-13,6.28a3.36,3.36,0,0,1-1.4-.27c-3-1.36-4.18-8.51-5.19-14.81-1.2-7.54-2.33-14.66-6.62-17.14a8.35,8.35,0,0,0-4.24-1c-4,0-9.05,1.94-14,3.81-4.61,1.76-9.38,3.58-12.69,3.58a4.47,4.47,0,0,1-2.69-.69c-2.69-2-2.32-9.17-2-15.53.39-7.64.76-14.85-2.94-18.18-1.64-1.48-4.14-2.19-7.63-2.19a73.21,73.21,0,0,0-10.74,1.18A72.06,72.06,0,0,1,140.36,433c-2.78,0-4.57-.48-5.48-1.49-2.22-2.46-.37-9.43,1.26-15.58,2-7.4,3.82-14.39.88-18.42s-10.1-4.39-17.71-4.79c-6.39-.34-13.62-.73-15.3-3.62s1.61-9.27,4.48-14.94c1-1.92,1.93-3.81,2.77-5.64l-4.18.51c-.57,1.19-1.17,2.37-1.76,3.53-3.6,7.09-7,13.79-4.39,18.32s10.2,5,18.19,5.39c6.14.33,13.11.7,15,3.33s.14,9.44-1.44,15.42c-2.05,7.7-4,15-.47,18.87,1.62,1.8,4.27,2.67,8.12,2.67a73.21,73.21,0,0,0,10.74-1.18,72.54,72.54,0,0,1,10.19-1.14c2.54,0,4.3.43,5.25,1.29,2.44,2.19,2.08,9.18,1.77,15.34-.41,8-.79,15.51,3.46,18.6a8,8,0,0,0,4.78,1.36c4,0,9-1.93,14-3.81,4.61-1.76,9.38-3.57,12.7-3.57a5,5,0,0,1,2.46.52c2.83,1.64,3.92,8.54,4.89,14.63,1.26,7.89,2.44,15.35,7.25,17.5a7,7,0,0,0,2.85.57c4.34,0,9.49-3.32,14.94-6.84,4.8-3.11,9.76-6.31,13.08-6.31a3.72,3.72,0,0,1,1.15.16c3.09,1,5.6,7.51,7.81,13.25,2.88,7.48,5.6,14.54,10.77,15.64a6.7,6.7,0,0,0,1.34.14c4.7,0,9.56-4.85,14.7-10,4.24-4.23,9-9,12.35-9h.33c3.21.33,7,6.15,10.35,11.28,4.38,6.7,8.51,13,13.84,13h0c5.19,0,9.27-6.28,13.59-12.92,3.4-5.22,7.25-11.14,10.58-11.49h.33c3.34,0,8.16,4.81,12.41,9.05,5.12,5.12,10,10,14.65,10a6.5,6.5,0,0,0,1.32-.14c5.2-1.1,7.94-8.17,10.83-15.67,2.21-5.71,4.72-12.19,7.79-13.18a3.83,3.83,0,0,1,1.16-.17c3.33,0,8.3,3.22,13.11,6.34,5.44,3.53,10.58,6.86,14.9,6.86a6.9,6.9,0,0,0,2.83-.58c4.83-2.14,6-9.62,7.29-17.53,1-6.07,2.07-12.95,4.88-14.58a5,5,0,0,1,2.48-.53c3.32,0,8.1,1.82,12.72,3.58,4.91,1.87,10,3.8,13.93,3.8a8,8,0,0,0,4.77-1.36c4.26-3.1,3.87-10.64,3.46-18.63-.32-6.15-.68-13.13,1.75-15.31.95-.86,2.73-1.3,5.29-1.3a71,71,0,0,1,10.17,1.13,74.17,74.17,0,0,0,10.71,1.17c3.85,0,6.51-.88,8.13-2.68,3.51-3.9,1.57-11.19-.48-18.9-1.59-6-3.39-12.73-1.46-15.38s8.9-3,15.06-3.35c8-.43,15.52-.83,18.15-5.38s-.78-11.26-4.38-18.37c-.55-1.08-1.1-2.18-1.64-3.29-1.41-.19-2.81-.38-4.2-.54C532.27,370.39,533.19,372.22,534.13,374.07Z" style="fill:#fff"/><path d="M71.79,237.35c.19-1.83,2.21-3.64,4.93-5.39l-.14-4.09c-4.5,2.61-7.94,5.41-8.33,9.12-.47,4.5,3.89,8.67,9.1,13l-.17-4.82C74,242.33,71.56,239.55,71.79,237.35Z" style="fill:#fff"/><path d="M321.33,470.45a205.48,205.48,0,0,0,146.28-60.59,208.05,208.05,0,0,0,32.91-42.76l-4.22-.1C439.24,463.63,314.66,495.71,218,438.66a203.34,203.34,0,0,1-71.6-71.57L146,367l-3.89.08A207.92,207.92,0,0,0,175,409.86,205.46,205.46,0,0,0,321.33,470.45Z" style="fill:#fff"/><path d="M467.61,117.31c-80.9-80.77-212-80.67-292.74.24a206.92,206.92,0,0,0-54.63,97.25l3.84-.51c22.09-88.36,102.14-154,197.25-154S496.6,126,518.63,214.46l3.84.52A205.5,205.5,0,0,0,467.61,117.31Z" style="fill:#fff"/><path d="M431.51,329.89a128.55,128.55,0,0,1-220.42-.12l-3.9.4a132.1,132.1,0,0,0,228.21.13Z" style="fill:#fff"/><path d="M321.33,131.41a132.35,132.35,0,0,0-118.92,74.52l4.13-.33a128.59,128.59,0,0,1,229.63.1l4.15.34A132.39,132.39,0,0,0,321.33,131.41Z" style="fill:#fff"/><polygon points="101.11 349.19 142.3 360.45 142.3 342.62 101.11 349.19" style="fill:#fff"/><polygon points="540.47 349.19 499.28 342.62 499.28 360.45 540.47 349.19" style="fill:#fff"/><path d="M253.58,416.93a14.26,14.26,0,0,0,5.73-7.08,17,17,0,0,0,1.38-8.47,14.42,14.42,0,0,0-2.93-7.17,19.52,19.52,0,0,0-3.3-3.25,42.5,42.5,0,0,0-4.39-3,117.09,117.09,0,0,1-10.38-7l-26.87,40c4.12,3,6.22,4.48,10.48,7.19l8.88-15.29c.91.58,1.37.87,2.29,1.43a176.3,176.3,0,0,0,2.63,21.85,144.61,144.61,0,0,0,13.23,6.25,173.64,173.64,0,0,1-4.79-24A13.07,13.07,0,0,0,253.58,416.93Zm-7.89-20.33a26,26,0,0,1,2.88,2,7.55,7.55,0,0,1,1.48,1.56,3.62,3.62,0,0,1,.66,2.18,7.63,7.63,0,0,1-2.81,5.34,4.12,4.12,0,0,1-2.94.61,10,10,0,0,1-2.51-.71,24.56,24.56,0,0,1-3.63-1.9c-.72-.44-1.07-.67-1.78-1.12,2.27-3.91,3.41-5.86,5.67-9.78Z" style="fill:#fff"/><path d="M292.13,414.82l1.8-9.63a137,137,0,0,1-24.25-7.37q-8.49,22.8-17,45.62a181.76,181.76,0,0,0,33.48,10.05c.69-3.85,1-5.78,1.74-9.64a143.5,143.5,0,0,1-20.9-5.51c1.19-3.93,1.78-5.9,3-9.82a136.3,136.3,0,0,0,16,4.42l1.95-9.6a127.52,127.52,0,0,1-15.11-4.17c1.06-3.52,1.59-5.29,2.66-8.81A121,121,0,0,0,292.13,414.82Z" style="fill:#fff"/><path d="M304.94,438.17h.15c.68.09,1.37.17,2.08.23a25.92,25.92,0,0,0,8.51-.57,16.74,16.74,0,0,0,6.38-3.08,12.57,12.57,0,0,0,3.82-5.12,15.75,15.75,0,0,0,1.05-6.55,16.7,16.7,0,0,0-2.5-8.72,13.8,13.8,0,0,0-6.26-5.19,19.76,19.76,0,0,0-3.61-1.09,39,39,0,0,0-4.56-.61,111.65,111.65,0,0,1-11.24-1.4q-3.69,24.18-7.39,48.35c4.77.8,7.16,1.12,11.95,1.59C304,448.89,304.3,445.32,304.94,438.17Zm2.88-9.54c-.65-.06-1.28-.13-1.88-.22h-.11c.41-4.53.62-6.8,1-11.34l2.32.22a27.23,27.23,0,0,1,3.25.41,7.67,7.67,0,0,1,1.93.58,3.77,3.77,0,0,1,1.85,1.74,6.58,6.58,0,0,1,.53,3,7.3,7.3,0,0,1-.51,2.61,4,4,0,0,1-1.36,1.77,6.67,6.67,0,0,1-2.63,1.11A14.69,14.69,0,0,1,307.82,428.63Z" style="fill:#fff"/><path d="M338.93,444.2c5.43-.57,8.14-1,13.53-2,2.46,4.32,3.75,6.47,6.41,10.71,5-1.07,7.48-1.69,12.4-3.11a341.93,341.93,0,0,1-26.64-43.92c-3.09.55-4.64.77-7.75,1.14a281.11,281.11,0,0,1-14,49.87c5.09-.05,7.64-.16,12.73-.57C337,451.5,337.7,449.07,338.93,444.2Zm2.37-10.15c.21-1,.32-1.47.52-2.46.45-2.14.9-4.63,1.33-7.43,1.14,2.56,2.23,4.82,3.22,6.76.45.89.68,1.34,1.14,2.22-2.51.42-3.72.6-6.21.91Z" style="fill:#fff"/><path d="M385,445.24q-7.92-23-15.85-46.07c-3.45,1.3-5.19,1.89-8.69,2.95q6.48,23.53,13,47.05C378.13,447.76,380.44,447,385,445.24Z" style="fill:#fff"/><path d="M417.06,429.44c5.06-3.14,7.55-4.83,12.43-8.42a140.73,140.73,0,0,1-22.07-8.65,13.79,13.79,0,0,0,.71-16.87,15.71,15.71,0,0,0-6.08-5.78,13.08,13.08,0,0,0-7.41-1.27,18.23,18.23,0,0,0-4.42,1.16,40.14,40.14,0,0,0-4.81,2.2,114.4,114.4,0,0,1-11,5.27q8.79,22.68,17.57,45.37c4.54-1.92,6.78-3,11.22-5.22-3-6.44-4.46-9.66-7.44-16.11l2.37-1.22A147.09,147.09,0,0,0,417.06,429.44ZM397,409.19a24.86,24.86,0,0,1-3.48,2.15l-1.84,1L386.91,402c1.24-.62,1.85-.94,3.08-1.6a23.93,23.93,0,0,1,3.12-1.46,7.23,7.23,0,0,1,2.06-.45,3.31,3.31,0,0,1,2.11.59,6.62,6.62,0,0,1,1.8,2.14,7.12,7.12,0,0,1,.95,3.24,4.61,4.61,0,0,1-1.12,2.92A10.25,10.25,0,0,1,397,409.19Z" style="fill:#fff"/><path d="M192,129.27c.35,5.12,2.31,11.82,8.84,18.38a35.35,35.35,0,0,0,17.46,9.85c.81-.75,1.22-1.13,2-1.87a37.84,37.84,0,0,1-17-10.34c-6-6.22-8.39-12.39-8.75-18.37C193.55,127.85,193,128.32,192,129.27Z" style="fill:#fff"/><path d="M218.53,119.59c-2.21-3.19-6.95-4.49-11.93-.65-4.55,3.51-5.71,8.92-2.53,12.62,1.73,2,4.57,3,8.19,2.16l.13.08c-1.85,3.58-1.68,7.16.87,10.09,3,3.39,8,3.93,12.47.47,4.07-3.15,5.37-8.31,2.33-12.77-2.09-3.05-5.48-4.07-9.37-3.09l-.08-.12C220.52,124.79,220,121.73,218.53,119.59ZM207,128.74c-1.66-2.05-1.61-5.09,1.23-7.28,3.07-2.38,5.81-1.17,7.26.82,1.64,2.26,1.11,6-.38,7.26C213.15,131.15,208.9,131.11,207,128.74Zm18.14,5.43a5.36,5.36,0,0,1-.9,7.53l-.29.21a5.61,5.61,0,0,1-7.89-.86,1.71,1.71,0,0,1-.11-.14c-1.78-2.25-1.95-6.68.09-8.27,2.31-1.87,7-1.47,9.09,1.53Z" style="fill:#fff"/><path d="M227.64,104.86c-5.6,3.22-6.42,10.62-.72,19.23,5.6,8.45,11.71,11.18,16.18,8.59,5-2.92,5.46-9.52.77-18.87C239.47,105.05,233.41,101.55,227.64,104.86Zm14,24.93c-2.88,1.66-7.11-1-11.34-7.82-4.44-7.12-4.5-12.34-1.33-14.17,3.83-2.21,7.88,1.32,11.43,8,3.72,7,4.47,12.14,1.27,14Z" style="fill:#fff"/><path d="M250,93.92c-5.9,2.41-7.63,9.59-3.12,18.88,4.42,9.12,10.06,12.67,14.77,10.73,5.31-2.19,6.56-8.67,3.13-18.55C261.58,95.72,256.08,91.43,250,93.92Zm10.61,26.55c-3,1.25-6.84-2-10.13-9.29-3.46-7.64-2.86-12.8.47-14.17,4-1.66,7.56,2.38,10.21,9.47,2.75,7.37,2.84,12.61-.54,14Z" style="fill:#fff"/><path d="M276.33,123.76a37.72,37.72,0,0,0-.3-20c-2.44-8.93-7.14-14-11.2-16.79-1.26.39-1.88.59-3.13,1,4.75,3.42,8.82,8.5,11.24,16.67a39.56,39.56,0,0,1,.9,20A23.83,23.83,0,0,1,276.33,123.76Z" style="fill:#fff"/><path d="M304.63,81.16c-5.88.52-8.81.9-14.64,1.89.2,6,.34,8.93.66,14.88a22.73,22.73,0,0,1,3.89-.94c5.58-.88,8.36,1.72,8.81,5.65a6.42,6.42,0,0,1-5.26,7.4l-.15,0a11.3,11.3,0,0,1-5.89-.74c-.12,1.31-.18,2-.29,3.28a12.12,12.12,0,0,0,6.68.79c5.52-.82,9.11-5.59,8.6-11.58a8.9,8.9,0,0,0-4.77-7.43,11.11,11.11,0,0,0-6.38-.85,14.07,14.07,0,0,0-2.32.49c-.05-3.19-.07-4.79-.09-8,4.57-.7,6.86-1,11.46-1.39C304.82,83.25,304.75,82.55,304.63,81.16Z" style="fill:#fff"/><path d="M320.53,111.7c5.65,0,9.21-5.57,9.75-16,.5-9.78-3-15.81-9.42-15.79s-10.48,6-9.81,16.31C311.7,106.31,315.51,111.73,320.53,111.7Zm.06-28.59c4.3,0,6,5,5.8,12.61-.22,7.85-2.1,12.74-5.68,12.76-3.23,0-5.49-4.43-5.8-12.42C314.59,87.69,317,83.13,320.59,83.11Z" style="fill:#fff"/><path d="M343.53,112.72q2.16-15.23,4.31-30.47l-3.52-.46c-2.85,1.11-4.26,1.69-7,2.89.2,1.29.31,1.94.5,3.23,2.16-1,3.26-1.43,5.48-2.33h.09q-1.59,13.35-3.2,26.7C341.52,112.45,342.19,112.53,343.53,112.72Z" style="fill:#fff"/><path d="M354.43,103.15c4.13.82,6.18,1.29,10.26,2.37.32-1.17.47-1.75.79-2.93-4.16-1.09-6.25-1.58-10.46-2.41C354.78,101.36,354.67,102,354.43,103.15Z" style="fill:#fff"/><path d="M369,112.51c-1.46.88-2.18,1.32-3.61,2.24l-.7,2.46a130.09,130.09,0,0,1,15.72,5.39c.51-1.28.77-1.92,1.29-3.2-4.43-1.79-6.68-2.6-11.21-4.05a.14.14,0,0,1,0-.09c1.07-.61,1.61-.92,2.7-1.51,7.38-4.12,12.78-6.86,14.88-12.14,1.64-4.09.71-9.46-5.65-11.63a12.89,12.89,0,0,0-9.25.36c.18,1.28.27,1.91.43,3.19a9.79,9.79,0,0,1,6.94-.54c4.33,1.46,4.68,4.73,3.59,7.66C382.53,105,377.77,107.35,369,112.51Z" style="fill:#fff"/><path d="M406.07,99.9c-5.73-2.88-12.26.54-16.3,10s-3,15.9,1.62,18.19c5.17,2.58,10.95-.68,16.16-9.76C412.43,109.87,412,102.87,406.07,99.9ZM404,116.59c-3.76,6.91-7.68,10.39-11,8.75-2.95-1.48-3-6.48.33-13.76,3.49-7.61,7.78-10.56,11-8.94C408.31,104.61,407.6,109.94,404,116.59Z" style="fill:#fff"/><path d="M408,130.29c-1.67.45-2.49.69-4.13,1.18l-1.32,2.19a131.87,131.87,0,0,1,14.14,9.63l2.1-2.75c-3.94-3-6-4.42-10-7.08v-.08c1.21-.3,1.82-.44,3-.71,8.33-1.95,14.36-3.08,17.79-7.62,2.65-3.51,3.09-9-2.64-12.89a13.36,13.36,0,0,0-9.21-2.21c-.14,1.29-.22,1.93-.39,3.21a10.12,10.12,0,0,1,7,1.4c3.91,2.62,3.42,5.9,1.6,8.44C423.25,126.76,417.94,127.71,408,130.29Z" style="fill:#fff"/><path d="M427.07,148.14a13,13,0,0,1-3.5-5.45c-1.12.72-1.68,1.09-2.79,1.82a13.64,13.64,0,0,0,4.1,6.18c4.89,4.31,10.39,3.82,13.84.34a7.71,7.71,0,0,0,.64-10.29.13.13,0,0,0,.06-.07c3.65,1.51,6.94,1,9.2-1.28,2.63-2.67,3.09-7.39-1.75-11.71a15.15,15.15,0,0,0-8.05-3.76c-.39,1.24-.59,1.86-1,3.09a11.32,11.32,0,0,1,6.18,2.62c3,2.66,2.71,5.41,1,7.21-2.49,2.65-6.36,1.17-8.63-.8l-1.74-1.5-2,2.39c.69.58,1,.88,1.71,1.47,3,2.57,4.43,6.55,1.52,9.7C434.09,150,430.68,151.32,427.07,148.14Z" style="fill:#fff"/><path d="M125.85,362.08S98.74,353.82,81,350.84v-.4h0l-.06-1.6-5.21-83.53s-46.23,7-68.46,20.3L28.16,323.4s3.11,8.19.89,16.54-15.11,46.58-15.11,46.58S83.18,363,125.85,362.08Z" style="fill:#fff"/><path d="M634.22,285.62c-22.23-13.34-68.46-20.3-68.46-20.3l-5.11,81.78-.11,3.35h-.09v.41c-17.78,3-44.9,11.24-44.9,11.24,42.68.89,112,24.45,112,24.45S614.66,348.3,612.43,340s.89-16.54.89-16.54Z" style="fill:#fff"/><path d="M638.88,288.2l2.5-4.51L637,281c-22.87-13.72-68.48-20.71-70.41-21l-2.82-.42v-.86c5.46-7.44,20.46-15.47,19.7-22.71-.6-5.67-10.72-9.79-18.4-14.27v-.33l-.82-.15c-3.94-2.36-7.1-4.85-7.7-7.72-1.84-8.68,18.19-23.14,15.51-31.44s-27.45-8.39-31-16.37,13-26.41,8.59-34-28.58-2.44-33.74-9.53,7.19-28.51,1.31-35-28.45,3.57-35-2.31,1.14-29.37-6-34.55-27.08,9.39-34.7,5-4.95-29-13-32.56S404,37.58,395.61,34.85s-10.85-27.3-19.5-29.13-20.85,19.6-29.66,18.69S330.21,0,321.33,0c-8.7,0-16.27,23.52-25.12,24.45S275.07,4,266.55,5.75C257.87,7.59,255.31,32.17,247,34.86s-24.9-15.67-32.88-12.12-5.44,28.16-13,32.55-27.61-10.13-34.7-5,.58,28.71-6,34.58-29.1-4.19-35,2.35,6.51,27.91,1.34,35-29.33,1.9-33.74,9.53,12.16,25.94,8.56,34-28.28,7.94-31,16.34,17.3,22.81,15.46,31.46c-.58,2.76-3.51,5.16-7.22,7.44l-2.5.44v1c-7.51,4.22-16.67,8.21-17.23,13.57-.69,6.6,12.22,13.95,18.44,21l.09,2.58-2.86.43c-1.93.29-47.54,7.28-70.42,21L0,283.69l2.49,4.51,20.67,37.39c.44,1.35,2.15,7.25.63,13-2.16,8.09-14.89,45.87-15,46.25L5.32,395.05l10.22-3.47c.56-.19,46.12-15.56,85.34-21.7-3.16,8.81-11,20-7.86,25.52,4.42,7.64,28.57,2.43,33.74,9.52s-7.19,28.51-1.31,35,28.44-3.56,35,2.32-1.15,29.37,6,34.54,27.08-9.38,34.7-5,4.94,29,13,32.56,24.51-14.81,32.91-12.07,10.85,27.29,19.5,29.13,20.85-19.61,29.66-18.69,16.28,24.42,25.16,24.4c8.71,0,16.28-23.52,25.13-24.45s21.14,20.5,29.65,18.7c8.69-1.84,11.25-26.42,19.55-29.1s24.9,15.67,32.89,12.12,5.44-28.17,13-32.55,27.61,10.13,34.7,5-.57-28.67,6-34.55,29.1,4.18,35-2.35-6.51-27.92-1.34-35,29.33-1.91,33.74-9.53c3.17-5.48-4.55-16.54-7.76-25.3,38.92,6.27,83.44,21.3,84,21.48l10.22,3.47-3.45-10.22c-.13-.38-12.86-38.16-15-46.25-1.52-5.72.17-11.61.62-13Zm-557-62.3s3-.53,8.62-1.41h0l1-.16h.23l1.57-.24h.1l1.79-.27h.24l1.76-.27.45-.07,1.73-.26.46-.06,1.87-.28.39-.06,2-.3.41-.06,2.14-.31.47-.07,2.24-.32.43-.06,2.35-.33.55-.08L115,221l.64-.09,2.41-.33.64-.09H119l3.8-.51h0l1.74-.23.66-.09,2.68-.35.8-.1,2.67-.34.83-.11,2.79-.35.8-.1,2.88-.35.85-.11,3-.35.87-.11,3-.35,1-.11,3-.35,1-.12,3.09-.35,1-.11,3.16-.35,1-.11,3.22-.35,1.08-.12,3.22-.34,1.17-.12,3.27-.34,1.16-.11,3.31-.34,1.24-.12,3.34-.32,1.26-.12,3.38-.32,1.3-.12,3.44-.32,1.3-.12,3.51-.31,1.31-.11,3.53-.3c1.43-.13,2.88-.25,4.33-.36h.54l1.5-.12,3.49-.28,1.52-.12,3.54-.26,1.53-.12,3.59-.26,1.55-.11,3.59-.25,1.61-.11,3.59-.24,1.67-.1,3.6-.23L237,209l3.63-.21,1.72-.1,3.65-.2,1.73-.1,3.66-.18,1.79-.09,3.63-.18,1.85-.08,3.65-.16,1.87-.08,3.62-.14,1.94-.08,3.59-.12,2-.07,3.6-.11,2-.06,3.67-.1h2l3.71-.08h2l3.69-.07h2l3.72,0h44.13l3.38.06,2.32,0,3.34.07,2.37.06,3.25.09,2.47.07,3.13.1,2.48.08,3.1.11,2.46.1c1,0,2.05.07,3.07.12l2.5.1,3,.13,2.53.12,2.94.14,2.48.12,3,.15,2.45.14,2.92.16,2.45.14,2.89.17,2.43.15,2.84.17,2.43.16,2.81.18,2.42.17,2.75.19,2.41.17,2.7.2,2.43.18,2.62.2,2.44.19,2.55.2,2.44.2,1.23.1h0l4,.34h0L445,212l2.33.21,2.49.22,2.31.2,2.41.23,2.33.21,2.32.22,2.32.22,2.26.23,2.3.22,2.22.23,2.26.22,2.16.23,2.24.23,2.13.23,2.18.23,2.08.22,2.14.24,2,.23,2.1.23,2,.23,2.1.24,1.9.22,2,.24,1.89.22,2,.24,1.8.21,2,.24,1.77.22,1.89.24,1.7.21,1.88.24,1.63.21,1.81.23,1.64.21,1.7.23,1.57.2,4.87.66h0l1.4.19,1.58.22,1.37.19,1.52.21,1.37.19,1.4.2,1.29.18,1.41.21,1.14.16,1.39.2,1.12.17,1.28.19,1,.15,1.26.19.89.13,1.27.2.86.13,1.13.17.93.14,1,.15.85.14.89.14.85.13.75.12.79.13c4.62.73,7.12,1.17,7.12,1.17l-4.15,118C440.49,318.63,320.77,318,320.77,318S201,318.37,86,343.85Zm331.58-21.19-7.9-5.71-7.86,5.71,3-9.24-7.86-5.71h9.72l3-9.25,3,9.25h9.72l-7.86,5.71Zm-169.7,0-7.9-5.71L228,204.71l3-9.24-7.86-5.71h9.72l3-9.25,3,9.25h9.71l-7.86,5.71Zm38.42-4.18L270,191.65l-12.22,8.88,4.67-14.37-12.22-8.87h15.1L270,162.92l4.67,14.37h15.1l-12.22,8.87Zm55.67-1.89-17.1-12.42-17.09,12.42,6.53-20.09-17.1-12.42h21.13l6.53-20.1,6.53,20.1h21.13l-17.09,12.42Zm45.91,1.89-12.22-8.88-12.22,8.88L364,186.16l-12.22-8.87h15.1l4.67-14.37,4.67,14.37h15.1l-12.22,8.87ZM321.33,135a128.78,128.78,0,0,0-114.79,70.6l-4.13.33a132.16,132.16,0,0,1,237.91.11l-4.15-.34A128.75,128.75,0,0,0,321.33,135Zm-102.64-6.5c3.89-1,7.28,0,9.37,3.09,3,4.46,1.74,9.62-2.33,12.77-4.46,3.46-9.52,2.92-12.47-.47-2.55-2.93-2.72-6.51-.87-10.09l-.13-.08c-3.62.87-6.46-.15-8.19-2.16-3.18-3.7-2-9.11,2.53-12.62,5-3.84,9.72-2.54,11.93.65,1.48,2.14,2,5.2.08,8.79Zm54.25-23.9c-2.42-8.17-6.49-13.25-11.24-16.67,1.25-.41,1.87-.61,3.13-1,4.06,2.8,8.76,7.86,11.2,16.79a37.72,37.72,0,0,1,.3,20c-1,.31-1.5.47-2.49.8A39.69,39.69,0,0,0,272.94,104.6Zm-8.15.38c3.43,9.88,2.18,16.36-3.13,18.55-4.71,1.94-10.35-1.61-14.77-10.73-4.51-9.29-2.78-16.47,3.12-18.88,6.07-2.49,11.57,1.8,14.78,11.08Zm-21.69,27.7c-4.47,2.59-10.58-.14-16.18-8.59-5.7-8.61-4.88-16,.72-19.23,5.77-3.31,11.83.19,16.23,9C248.56,123.16,248.14,129.76,243.1,132.68Zm-39.77,12.61a37.84,37.84,0,0,0,17,10.34c-.82.74-1.23,1.12-2,1.87a35.35,35.35,0,0,1-17.46-9.85c-6.53-6.56-8.49-13.26-8.84-18.38,1-1,1.54-1.42,2.57-2.35C194.94,132.9,197.36,139.07,203.33,145.29ZM293.57,94a14.07,14.07,0,0,1,2.32-.49,11.11,11.11,0,0,1,6.38.85,8.9,8.9,0,0,1,4.77,7.43c.51,6-3.08,10.76-8.6,11.58a12.12,12.12,0,0,1-6.68-.79c.11-1.31.17-2,.29-3.28a11.3,11.3,0,0,0,5.89.74,6.42,6.42,0,0,0,5.43-7.27.77.77,0,0,0,0-.15c-.45-3.93-3.23-6.53-8.81-5.65a22.73,22.73,0,0,0-3.89.94c-.32-6-.46-8.92-.66-14.88,5.83-1,8.76-1.37,14.64-1.89.12,1.39.19,2.09.31,3.49-4.6.41-6.89.69-11.46,1.39C293.5,89.23,293.52,90.83,293.57,94Zm27.29-14.13c6.46,0,9.92,6,9.42,15.79-.54,10.45-4.1,16-9.75,16-5,0-8.83-5.39-9.48-15.5s3.54-16.25,9.81-16.27Zm22.43,5.69c-2.22.9-3.32,1.37-5.48,2.33-.19-1.29-.3-1.94-.5-3.23,2.75-1.2,4.16-1.78,7-2.89l3.52.46q-2.15,15.24-4.31,30.47c-1.34-.19-2-.27-3.35-.43q1.6-13.35,3.2-26.7ZM380.57,93a9.79,9.79,0,0,0-6.94.54c-.16-1.28-.25-1.91-.43-3.19a12.89,12.89,0,0,1,9.25-.36c6.36,2.17,7.29,7.54,5.65,11.63-2.1,5.28-7.5,8-14.88,12.14-1.09.59-1.63.9-2.7,1.51a.14.14,0,0,0,0,.09c4.53,1.45,6.78,2.26,11.21,4-.52,1.28-.78,1.92-1.29,3.2a130.09,130.09,0,0,0-15.72-5.39l.7-2.46c1.43-.92,2.15-1.36,3.61-2.24,8.77-5.16,13.53-7.52,15.16-11.86C385.25,97.72,384.9,94.45,380.57,93Zm43.79,21.57a10.12,10.12,0,0,0-7-1.4c.17-1.28.25-1.92.39-3.21a13.36,13.36,0,0,1,9.21,2.21c5.73,3.88,5.29,9.38,2.64,12.89-3.43,4.54-9.46,5.67-17.79,7.62-1.23.27-1.84.41-3.05.71v.08c4.1,2.66,6.11,4.07,10,7.08l-2.1,2.75a131.87,131.87,0,0,0-14.14-9.63l1.32-2.19c1.64-.49,2.46-.73,4.13-1.18,9.95-2.58,15.26-3.53,18-7.29,1.81-2.55,2.3-5.83-1.61-8.45Zm10,23.84c-.68-.59-1-.89-1.71-1.47l2-2.39,1.74,1.5c2.27,2,6.14,3.45,8.63.8,1.69-1.8,2-4.55-1-7.21a11.32,11.32,0,0,0-6.18-2.62c.41-1.23.61-1.85,1-3.09a15.15,15.15,0,0,1,8.05,3.76c4.84,4.32,4.38,9,1.75,11.71-2.26,2.29-5.55,2.79-9.2,1.28a.13.13,0,0,1-.06.07,7.71,7.71,0,0,1-.64,10.29c-3.45,3.48-9,4-13.84-.34a13.64,13.64,0,0,1-4.1-6.18c1.11-.73,1.67-1.1,2.79-1.82a13,13,0,0,0,3.5,5.45c3.61,3.18,7,1.86,8.79,0,2.89-3.15,1.42-7.15-1.54-9.75Zm-26.79-20c-5.21,9.08-11,12.34-16.16,9.76-4.58-2.29-5.6-8.87-1.62-18.19,4-9.5,10.57-12.92,16.3-10,5.91,2.89,6.34,9.89,1.46,18.39Zm-42.86-12.85c-4.08-1.08-6.13-1.55-10.26-2.37.24-1.19.35-1.79.59-3,4.21.83,6.3,1.32,10.46,2.41-.34,1.17-.5,1.75-.81,2.92ZM321.33,60.28c-95.11,0-175.16,65.65-197.25,154l-3.84.51c27.12-111.06,139.13-179.11,250.19-152A207,207,0,0,1,522.47,215l-3.84-.52C496.6,126,416.5,60.28,321.33,60.28Zm81.86,377c-4.44,2.25-6.68,3.3-11.22,5.22q-8.78-22.68-17.57-45.37a114.4,114.4,0,0,0,11-5.27,40.14,40.14,0,0,1,4.81-2.2,18.23,18.23,0,0,1,4.42-1.16,13.08,13.08,0,0,1,7.41,1.27,15.71,15.71,0,0,1,6.08,5.78,13.79,13.79,0,0,1-.71,16.87A139.94,139.94,0,0,0,429.49,421c-4.88,3.59-7.37,5.28-12.43,8.42a147.86,147.86,0,0,1-18.94-9.54l-2.37,1.22c3,6.47,4.46,9.69,7.44,16.13ZM287.93,423.34l-1.95,9.6a136.3,136.3,0,0,1-16-4.42c-1.19,3.92-1.78,5.89-3,9.82a143.5,143.5,0,0,0,20.9,5.51c-.7,3.86-1.05,5.79-1.74,9.64a181.76,181.76,0,0,1-33.48-10.05q8.49-22.81,17-45.62a137,137,0,0,0,24.25,7.37l-1.8,9.63a121.31,121.31,0,0,1-16.65-4.46c-1.07,3.52-1.6,5.29-2.66,8.81A127.83,127.83,0,0,0,287.93,423.34Zm-37.6,19.11c-5.36-2.27-8-3.52-13.23-6.25a176.3,176.3,0,0,1-2.63-21.85c-.92-.56-1.38-.85-2.29-1.43l-8.88,15.29c-4.26-2.71-6.36-4.15-10.48-7.19l26.87-40a117.09,117.09,0,0,0,10.38,7,42.5,42.5,0,0,1,4.39,3,19.52,19.52,0,0,1,3.3,3.25,14.42,14.42,0,0,1,2.93,7.17,17,17,0,0,1-1.38,8.47,14.26,14.26,0,0,1-5.73,7.08,13,13,0,0,1-8,1.52,171.23,171.23,0,0,0,4.75,24Zm48.43-36.36a111.65,111.65,0,0,0,11.24,1.4,39,39,0,0,1,4.56.61,19.76,19.76,0,0,1,3.61,1.09,13.8,13.8,0,0,1,6.26,5.19,16.7,16.7,0,0,1,2.5,8.72,15.75,15.75,0,0,1-1.05,6.55,12.57,12.57,0,0,1-3.82,5.12,16.74,16.74,0,0,1-6.38,3.08,25.92,25.92,0,0,1-8.51.57c-.71-.06-1.4-.14-2.08-.23h-.15c-.64,7.15-1,10.72-1.62,17.86-4.79-.47-7.18-.79-11.95-1.59q3.7-24.18,7.39-48.37Zm38.12,1c3.11-.37,4.66-.59,7.75-1.14a341.93,341.93,0,0,0,26.64,43.92c-4.92,1.42-7.41,2-12.4,3.11-2.66-4.24-3.95-6.39-6.41-10.71-5.39,1-8.1,1.41-13.53,2-1.23,4.87-1.9,7.3-3.35,12.14-5.09.41-7.64.52-12.73.57a281.27,281.27,0,0,0,14-50Zm23.61-4.92c3.5-1.06,5.24-1.65,8.69-2.95q7.94,23,15.85,46.07c-4.59,1.73-6.9,2.52-11.57,3.93q-6.46-23.58-13-47.1Zm-39.16-6.35a132.24,132.24,0,0,1-114.14-65.6l3.9-.4a128.55,128.55,0,0,0,220.42.12l3.89.41a132.26,132.26,0,0,1-114.07,65.42Zm-179-35.32-41.19-11.26,41.19-6.57ZM228,326.07l7.86,5.71,7.86-5.71-3,9.24,7.86,5.72h-9.71l-3,9.24-3-9.24h-9.72l7.86-5.72Zm169.7,0,7.86,5.71,7.86-5.71-3,9.24,7.86,5.72h-9.72l-3,9.24-3-9.24h-9.72l7.86-5.72Zm-38.42,4.19,12.22,8.88,12.22-8.88-4.67,14.36,12.22,8.88h-15.1l-4.67,14.36-4.67-14.36h-15.1L364,344.62Zm-55.66,1.88,17.09,12.42,17.1-12.42-6.53,20.1,17.09,12.42H327.24l-6.53,20.09-6.53-20.09H293.05l17.1-12.42Zm-45.92-1.88,12.22,8.88,12.22-8.88-4.67,14.36,12.22,8.88h-15.1l-4.67,14.36-4.67-14.36h-15.1l12.22-8.88Zm241.58,12.36,41.19,6.57-41.19,11.26ZM146,367l.4.11c57.1,96.6,181.71,128.63,278.31,71.52A203.07,203.07,0,0,0,496.3,367l4.22.08a208.05,208.05,0,0,1-32.91,42.76c-80.78,80.79-211.76,80.79-292.54,0h0a207.92,207.92,0,0,1-32.93-42.78ZM574.37,237c.52,4.95-4.58,9.45-10.34,14.15l.17-4.77c3.72-3.19,6.9-6.45,6.63-9-.22-2.1-2.8-4.18-6.1-6.15l.14-4C569.92,230,574,233,574.37,237ZM79.31,184.93c1.63-5,8.93-7,16.66-9.05,6-1.6,12.68-3.41,14-6.39s-1.82-9.26-4.61-14.78c-3.61-7.11-7-13.83-4.38-18.36s10.17-5,18.14-5.38c6.16-.33,13.14-.7,15.07-3.35s.13-9.42-1.46-15.38c-2-7.72-4-15-.48-18.91,1.62-1.8,4.28-2.67,8.12-2.67a74.17,74.17,0,0,1,10.71,1.17A72.59,72.59,0,0,0,161.27,93c2.56,0,4.34-.44,5.29-1.3,2.43-2.19,2.07-9.16,1.75-15.32-.41-8-.81-15.53,3.45-18.62a7.9,7.9,0,0,1,4.78-1.37c4,0,9,1.94,13.92,3.8,4.63,1.77,9.4,3.59,12.73,3.59a4.9,4.9,0,0,0,2.47-.53c2.82-1.63,3.92-8.51,4.89-14.58,1.26-7.92,2.45-15.39,7.28-17.54a6.89,6.89,0,0,1,2.83-.57c4.32,0,9.46,3.33,14.9,6.86,4.81,3.11,9.79,6.34,13.12,6.34a3.73,3.73,0,0,0,1.15-.17c3.08-1,5.58-7.47,7.79-13.19,2.9-7.49,5.64-14.57,10.83-15.67a6.59,6.59,0,0,1,1.33-.13c4.68,0,9.52,4.83,14.65,9.94,4.39,4.39,9.36,9.41,12.74,9s7.18-6.27,10.58-11.48c4.32-6.64,8.4-12.91,13.58-12.92s9.46,6.35,13.85,13.07c3.35,5.14,7.15,10.95,10.36,11.29h.33c3.3,0,8.11-4.79,12.35-9,5.14-5.13,10-10,14.69-10a6.8,6.8,0,0,1,1.35.14c5.17,1.09,7.89,8.16,10.77,15.64,2.21,5.73,4.71,12.23,7.8,13.24a3.73,3.73,0,0,0,1.15.17c3.32,0,8.28-3.21,13.09-6.31,5.45-3.52,10.6-6.85,14.93-6.85a6.83,6.83,0,0,1,2.85.58c4.81,2.14,6,9.6,7.25,17.5,1,6.08,2.07,13,4.9,14.62a4.89,4.89,0,0,0,2.46.53c3.31,0,8.08-1.82,12.7-3.58,4.91-1.87,10-3.81,13.95-3.81a8.07,8.07,0,0,1,4.79,1.37c4.24,3.09,3.86,10.62,3.45,18.59-.31,6.16-.67,13.15,1.78,15.35.94.85,2.71,1.28,5.25,1.28a72.4,72.4,0,0,0,10.18-1.14,73.19,73.19,0,0,1,10.75-1.18c3.84,0,6.5.88,8.12,2.67,3.51,3.9,1.57,11.17-.47,18.88-1.58,6-3.38,12.75-1.44,15.41s8.88,3,15,3.34c8,.42,15.54.82,18.18,5.39s-.78,11.22-4.39,18.32c-2.8,5.53-6,11.79-4.63,14.81s8,4.78,14,6.38c7.75,2.09,15.06,4.07,16.69,9.11s-3.11,10.77-8.1,16.94c-3.91,4.83-8.34,10.31-7.65,13.58a7,7,0,0,0,2.72,3.51l-5.46-.84a7.14,7.14,0,0,1-.74-1.94c-1-4.92,3.53-10.57,8.36-16.54,4-4.93,8.5-10.5,7.49-13.62s-8-5.09-14.24-6.77c-7.34-2-14.27-3.85-16.28-8.36s1.24-11,4.71-17.87c2.88-5.66,6.13-12.08,4.48-14.93s-8.91-3.28-15.29-3.62c-7.61-.41-14.8-.79-17.72-4.79s-1.08-11,.88-18.43c1.64-6.14,3.48-13.11,1.27-15.57-.91-1-2.7-1.5-5.48-1.5a71.39,71.39,0,0,0-10.2,1.14,74.3,74.3,0,0,1-10.73,1.18c-3.5,0-6-.72-7.63-2.2-3.7-3.33-3.34-10.54-2.95-18.17.33-6.37.69-13.58-2-15.54a4.46,4.46,0,0,0-2.69-.68c-3.31,0-8.08,1.82-12.69,3.57-4.91,1.88-10,3.82-14,3.82a8.35,8.35,0,0,1-4.24-1c-4.3-2.49-5.43-9.61-6.63-17.14-1-6.31-2.14-13.45-5.19-14.82a3.35,3.35,0,0,0-1.4-.26c-3.28,0-8.23,3.19-13,6.28-5.48,3.53-10.65,6.87-15,6.87a7.18,7.18,0,0,1-2.25-.34c-4.7-1.53-7.28-8.24-10-15.35-2.3-6-4.91-12.74-8.19-13.43s-8.33,4.42-12.8,8.87c-5.19,5.17-10.08,10.06-14.86,10.06a4.09,4.09,0,0,1-.7,0c-4.89-.51-8.82-6.51-13-12.87-3.5-5.37-7.48-11.46-10.86-11.46s-7.17,6-10.61,11.3c-4.21,6.45-8.18,12.55-13.19,13.08S287.37,32.47,281.91,27c-4.45-4.44-9.58-9.51-12.72-8.85-3.31.7-5.94,7.49-8.25,13.47-2.74,7.09-5.33,13.78-10,15.29a7.18,7.18,0,0,1-2.25.34c-4.38,0-9.56-3.35-15.05-6.91-4.77-3.09-9.7-6.28-13-6.28a3.45,3.45,0,0,0-1.38.26c-3.07,1.37-4.21,8.53-5.22,14.85-1.2,7.52-2.34,14.62-6.62,17.09a8.38,8.38,0,0,1-4.25,1c-4,0-9.07-1.94-14-3.81-4.61-1.76-9.36-3.57-12.66-3.57a4.45,4.45,0,0,0-2.68.68c-2.7,2-2.33,9.19-2,15.57.39,7.62.77,14.82-2.92,18.14-1.65,1.49-4.16,2.21-7.67,2.21a74.15,74.15,0,0,1-10.72-1.17,72.4,72.4,0,0,0-10.17-1.12c-2.74,0-4.58.5-5.48,1.49-2.22,2.47-.36,9.45,1.28,15.61,2,7.39,3.82,14.37.9,18.39s-10.13,4.4-17.76,4.81c-6.37.34-13.59.72-15.26,3.61s1.6,9.3,4.48,15c3.46,6.83,6.72,13.27,4.69,17.83s-9,6.39-16.34,8.37c-6.17,1.66-13.17,3.54-14.2,6.72s3.5,8.74,7.48,13.68c4.82,6,9.37,11.6,8.33,16.5a6.81,6.81,0,0,1-.64,1.75l-5.31.81a6.56,6.56,0,0,0,2.47-3.3c.68-3.24-3.73-8.71-7.62-13.53C82.41,195.75,77.69,189.9,79.31,184.93ZM68.25,237c.39-3.71,3.83-6.51,8.33-9.12l.14,4.09c-2.72,1.75-4.74,3.56-4.93,5.39-.23,2.2,2.25,5,5.39,7.79l.17,4.82C72.14,245.66,67.78,241.49,68.25,237ZM13.83,386.53S26.72,348.3,28.94,340s-.89-16.54-.89-16.54L7.16,285.62c22.23-13.34,68.46-20.3,68.46-20.3l5.21,83.53.06,1.6h0v.4c17.78,3,44.89,11.24,44.89,11.24C83.18,363,13.83,386.53,13.83,386.53ZM537.3,372.46c3.6,7.11,7,13.83,4.38,18.37s-10.17,4.95-18.15,5.38c-6.16.33-13.14.7-15.06,3.35s-.13,9.41,1.46,15.38c2.05,7.71,4,15,.48,18.9-1.62,1.8-4.28,2.68-8.13,2.68a74.17,74.17,0,0,1-10.71-1.17,71,71,0,0,0-10.17-1.13c-2.56,0-4.34.44-5.29,1.3-2.43,2.18-2.07,9.16-1.75,15.31.41,8,.8,15.53-3.46,18.63a8,8,0,0,1-4.77,1.36c-3.95,0-9-1.93-13.93-3.8-4.62-1.76-9.4-3.58-12.72-3.58A5,5,0,0,0,437,464c-2.81,1.63-3.91,8.51-4.88,14.58-1.26,7.91-2.46,15.39-7.29,17.53a6.9,6.9,0,0,1-2.83.58c-4.32,0-9.46-3.33-14.9-6.86-4.81-3.12-9.78-6.34-13.11-6.34a3.83,3.83,0,0,0-1.16.17c-3.07,1-5.58,7.47-7.79,13.18-2.89,7.5-5.63,14.57-10.83,15.67a6.5,6.5,0,0,1-1.32.14c-4.69,0-9.53-4.83-14.65-9.95-4.25-4.24-9.07-9.05-12.41-9.05h-.33c-3.33.35-7.18,6.27-10.58,11.49-4.32,6.64-8.4,12.91-13.59,12.92h0c-5.31,0-9.46-6.35-13.85-13.08-3.35-5.13-7.14-11-10.35-11.28h-.33c-3.31,0-8.11,4.8-12.35,9-5.14,5.12-10,10-14.7,10a6.7,6.7,0,0,1-1.34-.14c-5.17-1.1-7.89-8.16-10.77-15.64-2.21-5.74-4.72-12.24-7.81-13.25a3.72,3.72,0,0,0-1.15-.16c-3.32,0-8.28,3.2-13.08,6.31-5.45,3.52-10.6,6.84-14.94,6.84a7,7,0,0,1-2.85-.57c-4.81-2.15-6-9.61-7.25-17.5-1-6.09-2.06-13-4.89-14.63a5,5,0,0,0-2.46-.52c-3.32,0-8.09,1.81-12.7,3.57-4.91,1.88-10,3.81-14,3.81a8,8,0,0,1-4.78-1.36c-4.25-3.09-3.87-10.62-3.46-18.6.31-6.16.67-13.15-1.77-15.34-.95-.86-2.71-1.29-5.25-1.29a72.71,72.71,0,0,0-10.19,1.14,73.21,73.21,0,0,1-10.74,1.18c-3.85,0-6.5-.87-8.12-2.67-3.51-3.89-1.58-11.17.47-18.87,1.58-6,3.38-12.75,1.44-15.42s-8.89-3-15-3.33c-8-.43-15.54-.83-18.19-5.39s.79-11.23,4.39-18.32c.59-1.16,1.19-2.34,1.76-3.53l4.18-.51c-.84,1.83-1.79,3.72-2.77,5.64-2.87,5.67-6.13,12.08-4.48,14.94s8.91,3.28,15.3,3.62c7.61.4,14.8.78,17.71,4.79s1.09,11-.88,18.42c-1.63,6.15-3.48,13.12-1.26,15.58.91,1,2.7,1.49,5.48,1.49a71.23,71.23,0,0,0,10.19-1.13,73.21,73.21,0,0,1,10.74-1.18c3.49,0,6,.71,7.63,2.19,3.7,3.33,3.33,10.54,2.94,18.18-.32,6.36-.69,13.57,2,15.53a4.47,4.47,0,0,0,2.69.69c3.31,0,8.08-1.82,12.69-3.58,4.92-1.87,10-3.81,14-3.81a8.35,8.35,0,0,1,4.24,1c4.29,2.48,5.42,9.6,6.62,17.14,1,6.3,2.14,13.45,5.19,14.81a3.36,3.36,0,0,0,1.4.27c3.29,0,8.23-3.19,13-6.28,5.47-3.54,10.65-6.88,15-6.88a7.49,7.49,0,0,1,2.25.34c4.7,1.53,7.29,8.24,10,15.35,2.3,6,4.9,12.74,8.19,13.44a3.05,3.05,0,0,0,.6.06c3.23,0,8-4.75,12.19-8.93,5.18-5.18,10.08-10.06,14.86-10.06h.69c4.9.51,8.82,6.52,13,12.88,3.51,5.37,7.48,11.46,10.87,11.46h0c3.26,0,7.16-6,10.61-11.3,4.2-6.46,8.17-12.56,13.19-13.08.23,0,.47,0,.7,0,4.81,0,9.72,4.9,14.92,10.09,4.18,4.18,8.92,8.91,12.14,8.91a2.88,2.88,0,0,0,.59-.06c3.31-.7,5.93-7.48,8.25-13.47,2.73-7.08,5.32-13.77,10-15.29a7.49,7.49,0,0,1,2.25-.34c4.38,0,9.56,3.36,15,6.92,4.77,3.09,9.7,6.28,13,6.28a3.47,3.47,0,0,0,1.39-.26c3.07-1.37,4.21-8.53,5.22-14.85,1.2-7.52,2.33-14.62,6.61-17.1a8.34,8.34,0,0,1,4.26-1c4,0,9.07,1.94,14,3.82,4.6,1.75,9.36,3.57,12.66,3.57a4.46,4.46,0,0,0,2.68-.69c2.7-2,2.33-9.19,2-15.56-.4-7.62-.77-14.82,2.92-18.15,1.64-1.48,4.15-2.21,7.67-2.21a74.15,74.15,0,0,1,10.72,1.17A70.1,70.1,0,0,0,502.28,433c2.75,0,4.59-.5,5.48-1.5,2.23-2.47.37-9.45-1.27-15.61-2-7.38-3.82-14.36-.9-18.39s10.13-4.4,17.75-4.8c6.37-.34,13.59-.73,15.26-3.61s-1.6-9.3-4.47-15c-.94-1.85-1.86-3.68-2.67-5.44,1.39.16,2.79.35,4.2.54C536.2,370.28,536.75,371.38,537.3,372.46ZM612.43,340c2.23,8.35,15.12,46.58,15.12,46.58s-69.35-23.56-112-24.45c0,0,27.12-8.26,44.9-11.24v-.41h.09l.11-3.35,5.11-81.78s46.23,7,68.46,20.3l-20.9,37.79S610.21,331.6,612.43,340Z" style="fill:#13457b"/><path d="M119.59,300.5c1.53-.27,2.83-.55,3.88-.83a13.3,13.3,0,0,0,2.36-.85,9,9,0,0,0,2.33-1.47,6.13,6.13,0,0,0,1.31-1.72,5.85,5.85,0,0,0,.55-2,10.55,10.55,0,0,0-.12-2.51,7.25,7.25,0,0,0-1.56-3.6,4.89,4.89,0,0,0-2.91-1.62,8.38,8.38,0,0,0-2-.12,27.64,27.64,0,0,0-3.5.43c-2.57.44-3.85.67-6.42,1.13l2.49,13.8Z" style="fill:#fff"/><path d="M121.88,261.51a4.07,4.07,0,0,0-2.66-1.48,8.63,8.63,0,0,0-1.83-.07,27.65,27.65,0,0,0-3.15.39l-5.35.94,2.2,12.33,6.07-1.07a10.81,10.81,0,0,0,4.35-1.4,4.37,4.37,0,0,0,1.7-2.35,8.63,8.63,0,0,0,.15-3.75A7.78,7.78,0,0,0,121.88,261.51Z" style="fill:#fff"/><path d="M405.75,285.75a10.8,10.8,0,0,0,9.6.72,11.53,11.53,0,0,0,4.31-3.33,21,21,0,0,0,3.48-6.44,38.6,38.6,0,0,0,1.95-9.69,38.08,38.08,0,0,0-.29-9.89,21,21,0,0,0-2.43-7,11.38,11.38,0,0,0-3.83-4,11,11,0,0,0-14.38,2.61,20.77,20.77,0,0,0-3.44,6.53A38.26,38.26,0,0,0,399,265a38.94,38.94,0,0,0,.48,9.88,21.36,21.36,0,0,0,2.49,6.88A11.67,11.67,0,0,0,405.75,285.75Z" style="fill:#fff"/><path d="M86,343.85c115-25.48,234.72-26.08,234.72-26.08s119.73.6,234.72,26.08l4.15-118s-2.5-.44-7.12-1.17l-.79-.13-.75-.12-.85-.13-.89-.14-.85-.14-1-.15-.93-.14-1.13-.17-.86-.13-1.27-.2-.89-.13L541,223l-1-.15-1.28-.19-1.12-.17-1.39-.2-1.14-.16-1.41-.21-1.29-.18-1.4-.2-1.37-.19-1.52-.21-1.37-.19-1.58-.22-1.4-.19h0l-4.87-.66-1.57-.2-1.7-.23-1.64-.21-1.81-.23-1.63-.21-1.88-.24-1.7-.21-1.89-.24-1.77-.22-2-.24-1.8-.21-2-.24-1.89-.22-2-.24-1.9-.22-2.1-.24-2-.23-2.1-.23-2.05-.23-2.14-.24-2.08-.22L477,214.9l-2.13-.23-2.24-.23-2.16-.23-2.26-.22-2.22-.23-2.3-.22-2.26-.23-2.32-.22-2.32-.22-2.33-.21-2.41-.23-2.31-.2L447.3,212l-2.33-.21-2.13-.18h0l-4-.34h0l-1.23-.1-2.44-.2-2.55-.2-2.44-.19-2.62-.2-2.43-.18-2.7-.2-2.43-.2-2.75-.19-2.42-.17-2.81-.18-2.43-.16-2.84-.17-2.43-.15-2.89-.17-2.45-.14-2.92-.16-2.45-.14-3-.15-2.48-.12-2.94-.14-2.53-.12-3-.13-2.5-.1c-1,0-2-.08-3.07-.12l-2.46-.1-3.1-.11L366.1,207l-3.13-.1-2.47-.07-3.25-.09-2.37-.06-3.34-.07-2.32-.05-3.38-.06H301.6l-3.72.05h-2l-3.69.07h-2l-3.71.08h-2l-3.67.1-2,.06-3.6.11-2,.07-3.59.12-1.94.08-3.62.14-1.87.08-3.65.16-1.85.08-3.63.18-1.79.09-3.66.18-1.73.1-3.65.2-1.72.1-3.63.21-1.69.1-3.6.23-1.67.1-3.59.24-1.61.11-3.59.25-1.55.11-3.59.26-1.53.12-3.54.26-1.52.12-3.49.28-1.5.12h-.54c-1.45.11-2.9.23-4.33.36l-3.53.3-1.31.11-3.51.31-1.3.12-3.44.32-1.3.12-3.38.32-1.26.12-3.34.32-1.24.12-3.31.34-1.16.11-3.27.34-1.17.12-3.22.34-1.08.12-3.22.35-1,.11-3.16.35-1,.11-3.09.35-1,.12-3,.35-1,.11-3,.35-.87.11-3,.35-.85.11-2.88.35-.8.1-2.79.35-.83.11-2.67.34-.8.1-2.68.35-.66.09-1.74.23h0l-3.8.51h-.27l-.64.09-2.41.33-.64.09-2.35.32-.55.08-2.35.33-.43.06-2.24.32-.47.07-2.14.31-.41.06-2,.3-.39.06-1.87.28-.46.06-1.73.26-.45.07-1.76.27h-.24l-1.79.27h-.1l-1.57.24h-.23l-1,.16h0c-5.58.88-8.62,1.41-8.62,1.41ZM552.58,250,550,263.7c-9.77-1.85-14.66-2.73-24.46-4.38-.83,4.94-1.24,7.41-2.08,12.35,8.33,1.4,12.48,2.14,20.79,3.69-1,5.48-1.54,8.22-2.56,13.71-8.21-1.53-12.32-2.26-20.54-3.65-.93,5.53-1.4,8.29-2.33,13.81q12.53,2.11,25,4.49c-1,5.48-1.57,8.22-2.61,13.7q-19.4-3.62-38.84-6.73l10.53-67.54Q532.79,246.39,552.58,250Zm-81.46-2.83a26.75,26.75,0,0,1,10.54-6.66,29.22,29.22,0,0,1,13.67-1.18,38.51,38.51,0,0,1,6.95,1.61,30.26,30.26,0,0,1,5.83,2.63l1.31.79-2.2,14.3-3.45-1.93a30.08,30.08,0,0,0-5.11-2.31,27.43,27.43,0,0,0-4.72-1.11A13.43,13.43,0,0,0,482.4,257a20.26,20.26,0,0,0-4.28,6.35,33.94,33.94,0,0,0-2.49,9.44,35.33,35.33,0,0,0-.08,9.58,18.83,18.83,0,0,0,2.25,6.88,12,12,0,0,0,4,4.23,14.6,14.6,0,0,0,5.86,2,29.9,29.9,0,0,0,5.43.25,27.07,27.07,0,0,0,5.3-.74l3.84-.95c-.9,5.86-1.34,8.79-2.25,14.64l-1.55.31a39.29,39.29,0,0,1-6.4.7,40.29,40.29,0,0,1-6.94-.39,30,30,0,0,1-12.09-4.2,25.45,25.45,0,0,1-8.12-8.33,31.84,31.84,0,0,1-4-11.38A53.13,53.13,0,0,1,464.16,258a34.7,34.7,0,0,1,7-10.79Zm-9.57-10.93-7.68,67.93c-5.68-.65-8.52-.95-14.2-1.52q3.43-34,6.86-68c6,.63,9,.95,15,1.63ZM384,264.2a51.11,51.11,0,0,1,2.5-13.81,32.88,32.88,0,0,1,5.95-10.83,25.27,25.27,0,0,1,9.49-7,29.12,29.12,0,0,1,25,1.87,25.35,25.35,0,0,1,8.36,8.31,33,33,0,0,1,4.28,11.6,51.31,51.31,0,0,1,.42,14A52.63,52.63,0,0,1,436.9,282a35,35,0,0,1-6.21,10.61,25.72,25.72,0,0,1-41.08-3.07A34.91,34.91,0,0,1,385,278.15,53.09,53.09,0,0,1,384,264.2Zm-51.28-35.7c6,.05,9,.09,15.09.21l-.54,26.46c7.71.15,11.57.26,19.28.54l1-26.44c6,.22,9.05.34,15.08.64Q381,264,379.31,298.19c-5.69-.28-8.54-.4-14.24-.61q.51-14,1-27.93c-7.62-.28-11.43-.39-19.05-.54l-.57,27.95c-5.7-.12-8.55-.16-14.26-.21q.3-34.17.57-68.35Zm-45.94,21.72a34.55,34.55,0,0,1,5.31-11.64,26.67,26.67,0,0,1,9.43-8.13,29.35,29.35,0,0,1,13.32-3.17,38.26,38.26,0,0,1,7.09.58,29.88,29.88,0,0,1,6.14,1.75l1.39.59c0,5.79,0,8.68-.07,14.47l-3.7-1.41a29.62,29.62,0,0,0-5.37-1.53,27.73,27.73,0,0,0-4.81-.41,13.38,13.38,0,0,0-10.85,5.35,20.69,20.69,0,0,0-3.3,6.91,33.74,33.74,0,0,0-1.09,9.7,36.22,36.22,0,0,0,1.32,9.49,18.94,18.94,0,0,0,3.22,6.48,12.27,12.27,0,0,0,4.6,3.6,14.56,14.56,0,0,0,6.08,1.15,29.59,29.59,0,0,0,5.39-.55,26.16,26.16,0,0,0,5.12-1.51l3.65-1.49c0,5.92,0,8.88-.08,14.81l-1.49.53A39.92,39.92,0,0,1,315,298a29.93,29.93,0,0,1-12.63-2.45,25.49,25.49,0,0,1-9.23-7,31.84,31.84,0,0,1-5.62-10.68,53.33,53.33,0,0,1-.71-27.64Zm-12.19-20.83c.22,5.58.33,8.37.54,13.94-6.85.27-10.28.42-17.12.79q1.42,27.17,2.88,54.34c-5.7.3-8.54.47-14.24.84q-1.77-27.15-3.55-54.3c-6.86.45-10.29.7-17.15,1.24-.44-5.56-.67-8.34-1.11-13.9q24.91-1.86,49.79-3Zm-88.45,18.13a19.18,19.18,0,0,1,3.7-7.38,18.79,18.79,0,0,1,6.46-5,25.77,25.77,0,0,1,8.66-2.28,40.56,40.56,0,0,1,9.47.23,36,36,0,0,1,8.37,2.13l1.24.51c.48,5.91.71,8.87,1.19,14.78l-4-1.51a35.69,35.69,0,0,0-7.54-2,27.94,27.94,0,0,0-6.46-.21c-2.5.24-4.27.9-5.41,2s-1.59,2.83-1.36,5.07a6.76,6.76,0,0,0,1,3.15,5.41,5.41,0,0,0,1.84,1.72,10.23,10.23,0,0,0,2.74,1c1.21.27,2.53.51,3.89.72a61.92,61.92,0,0,1,6.88,1.48,19.94,19.94,0,0,1,6.47,3.06,15.76,15.76,0,0,1,4.75,5.63,23.34,23.34,0,0,1,2.19,8.8,25.81,25.81,0,0,1-.91,9.73,18.59,18.59,0,0,1-4.3,7.4,21,21,0,0,1-7.38,4.86,34.31,34.31,0,0,1-9.42,2.22,37.64,37.64,0,0,1-9-.21,23.5,23.5,0,0,1-7.88-2.46l-.94-.51c-.66-5.84-1-8.76-1.66-14.61l4.11,1.66a31.52,31.52,0,0,0,7.07,2,27.32,27.32,0,0,0,6.76.16,19.43,19.43,0,0,0,3.7-.75,9,9,0,0,0,2.83-1.46A6.13,6.13,0,0,0,215,285a7.87,7.87,0,0,0,.48-3.9,5.58,5.58,0,0,0-1-2.94,5.21,5.21,0,0,0-2-1.57,14.73,14.73,0,0,0-3.25-1c-1.4-.26-2.89-.49-4.37-.73a49.44,49.44,0,0,1-6.38-1.43,18.48,18.48,0,0,1-6-3,16.54,16.54,0,0,1-4.47-5.3,22,22,0,0,1-2.32-8.12,25.7,25.7,0,0,1,.51-9.53Zm-6-10.79c.64,5.54,1,8.3,1.61,13.84-9.85,1.15-14.77,1.77-24.6,3.12l1.7,12.4c8.35-1.14,12.53-1.68,20.9-2.68l1.65,13.85c-8.27,1-12.4,1.52-20.66,2.65l1.9,13.88q12.57-1.73,25.16-3.18l1.6,13.86q-19.54,2.34-39,5.16-5.06-33.81-10.1-67.63,19.9-2.87,39.86-5.27Zm-67.55,9.75a29.7,29.7,0,0,1,11-.16,18.31,18.31,0,0,1,10.3,5.93,18.06,18.06,0,0,1,2.85,4.52,19.32,19.32,0,0,1,1.44,4.94,20.48,20.48,0,0,1-.4,8.5A14.66,14.66,0,0,1,135,275.6q.81.36,1.59.78a14.75,14.75,0,0,1,3.76,3,16.38,16.38,0,0,1,2.68,4.1,19.57,19.57,0,0,1,1.52,5.24,24.82,24.82,0,0,1,.17,5.45,19.67,19.67,0,0,1-1.41,6,20.78,20.78,0,0,1-3.59,5.79,21.24,21.24,0,0,1-6.44,4.93c-.72.36-1.47.68-2.25,1s-1.67.61-2.64.9-2,.55-3.2.81-2.42.49-3.83.74c-6.83,1.2-10.24,1.82-17,3.12L91.54,250.31c8.46-1.6,12.63-2.37,21.07-3.83Z" style="fill:#fff"/><path d="M121.4,314.34c1.41-.25,2.7-.5,3.83-.74s2.26-.53,3.2-.81,1.86-.59,2.64-.9,1.53-.63,2.25-1a21.24,21.24,0,0,0,6.44-4.93,20.78,20.78,0,0,0,3.59-5.79,19.67,19.67,0,0,0,1.41-6,24.82,24.82,0,0,0-.17-5.45,19.57,19.57,0,0,0-1.52-5.24,16.38,16.38,0,0,0-2.68-4.1,14.75,14.75,0,0,0-3.76-3q-.78-.42-1.59-.78a14.67,14.67,0,0,0,2.75-5.39,20.48,20.48,0,0,0,.4-8.5,19.32,19.32,0,0,0-1.44-4.94,18.06,18.06,0,0,0-2.85-4.52,18.31,18.31,0,0,0-10.3-5.93,29.7,29.7,0,0,0-11,.16c-8.44,1.46-12.65,2.23-21.07,3.83l12.81,67.15C111.16,316.16,114.57,315.54,121.4,314.34ZM120,286.22a29.6,29.6,0,0,1,3.5-.43,8.38,8.38,0,0,1,2,.12,4.89,4.89,0,0,1,2.91,1.62,7.25,7.25,0,0,1,1.56,3.6,10.55,10.55,0,0,1,.12,2.51,5.85,5.85,0,0,1-.55,2,6.13,6.13,0,0,1-1.31,1.72,9,9,0,0,1-2.33,1.47,13.3,13.3,0,0,1-2.36.85c-1,.28-2.35.56-3.88.83l-3.61.64-2.45-13.79C116.1,286.89,117.38,286.66,120,286.22Zm3.26-17.42a4.37,4.37,0,0,1-1.7,2.35,10.81,10.81,0,0,1-4.35,1.4l-6.07,1.07-2.2-12.33,5.35-.94a27.65,27.65,0,0,1,3.15-.39,8.63,8.63,0,0,1,1.83.07,4.07,4.07,0,0,1,2.66,1.48,7.78,7.78,0,0,1,1.48,3.54,8.64,8.64,0,0,1-.2,3.75Z" style="fill:#13457b"/><path d="M189.42,304.47l-1.6-13.86q-12.6,1.45-25.16,3.18l-1.9-13.88c8.26-1.13,12.39-1.66,20.66-2.65l-1.65-13.85c-8.37,1-12.55,1.54-20.9,2.68l-1.7-12.4c9.83-1.35,14.75-2,24.6-3.12-.64-5.54-1-8.3-1.61-13.84q-20,2.4-39.86,5.29l10.11,67.61Q169.9,306.8,189.42,304.47Z" style="fill:#13457b"/><path d="M188,265.22a16.54,16.54,0,0,0,4.47,5.3,18.48,18.48,0,0,0,6,3,49.44,49.44,0,0,0,6.38,1.43c1.48.24,3,.47,4.37.73a14.73,14.73,0,0,1,3.25,1,5.21,5.21,0,0,1,2,1.57,5.58,5.58,0,0,1,1,2.94,7.87,7.87,0,0,1-.48,3.9,6.13,6.13,0,0,1-1.8,2.41,9,9,0,0,1-2.83,1.46,19.43,19.43,0,0,1-3.7.75,27.32,27.32,0,0,1-6.76-.16,31.52,31.52,0,0,1-7.07-2l-4.11-1.66c.66,5.85,1,8.77,1.66,14.61l.94.51a23.5,23.5,0,0,0,7.88,2.46,37.64,37.64,0,0,0,9,.21,34.31,34.31,0,0,0,9.42-2.22A21,21,0,0,0,225,296.6a18.59,18.59,0,0,0,4.3-7.4,25.81,25.81,0,0,0,.91-9.73,23.34,23.34,0,0,0-2.19-8.8,15.76,15.76,0,0,0-4.75-5.63A19.94,19.94,0,0,0,216.8,262a61.92,61.92,0,0,0-6.88-1.48c-1.36-.21-2.68-.45-3.89-.72a10.23,10.23,0,0,1-2.74-1A5.37,5.37,0,0,1,201.4,257a6.76,6.76,0,0,1-1-3.15c-.23-2.24.23-3.94,1.36-5.07s2.91-1.78,5.41-2a27.94,27.94,0,0,1,6.46.21,35.69,35.69,0,0,1,7.54,2l4.06,1.54c-.48-5.91-.71-8.87-1.19-14.78l-1.24-.51a36,36,0,0,0-8.37-2.13,40.56,40.56,0,0,0-9.47-.23,25.77,25.77,0,0,0-8.66,2.28,18.79,18.79,0,0,0-6.46,5,19.18,19.18,0,0,0-3.7,7.38,25.75,25.75,0,0,0-.51,9.58A22.08,22.08,0,0,0,188,265.22Z" style="fill:#13457b"/><path d="M243.14,245q1.77,27.15,3.55,54.3c5.7-.37,8.54-.54,14.24-.84l-2.88-54.34c6.84-.37,10.27-.52,17.12-.79-.21-5.57-.32-8.36-.54-13.94q-24.92,1.1-49.75,3c.44,5.56.67,8.34,1.11,13.9C232.85,245.7,236.28,245.45,243.14,245Z" style="fill:#13457b"/><path d="M287.53,277.86a31.84,31.84,0,0,0,5.62,10.68,25.49,25.49,0,0,0,9.23,7A30.05,30.05,0,0,0,315,298a39.83,39.83,0,0,0,13.11-2.25l1.49-.53c0-5.93,0-8.89.08-14.81L326,281.94a26.16,26.16,0,0,1-5.12,1.51,29.59,29.59,0,0,1-5.39.55,14.56,14.56,0,0,1-6.08-1.15,12.27,12.27,0,0,1-4.6-3.6,18.94,18.94,0,0,1-3.22-6.48,36.22,36.22,0,0,1-1.32-9.49,33.74,33.74,0,0,1,1.09-9.7,20.69,20.69,0,0,1,3.3-6.91,13.38,13.38,0,0,1,10.85-5.35,27.73,27.73,0,0,1,4.81.41,29.62,29.62,0,0,1,5.37,1.53l3.7,1.41c0-5.79,0-8.68.07-14.47l-1.39-.59a29.88,29.88,0,0,0-6.14-1.75,38.26,38.26,0,0,0-7.09-.58,29.35,29.35,0,0,0-13.32,3.17,26.67,26.67,0,0,0-9.43,8.13,34.55,34.55,0,0,0-5.31,11.64,53.33,53.33,0,0,0,.71,27.64Z" style="fill:#13457b"/><path d="M347,269.11c7.62.15,11.43.26,19.05.54q-.51,14-1,27.93c5.7.21,8.55.33,14.24.61q1.66-34.14,3.32-68.28c-6-.3-9.05-.42-15.08-.64l-1,26.44c-7.71-.28-11.57-.39-19.28-.54l.54-26.46c-6-.12-9.06-.16-15.09-.21q-.29,34.17-.56,68.35c5.71,0,8.56.09,14.26.21Z" style="fill:#13457b"/><path d="M389.64,289.6a25.7,25.7,0,0,0,41.08,3.07,35,35,0,0,0,6.21-10.61,52.63,52.63,0,0,0,3.1-13.68,51.31,51.31,0,0,0-.42-14,33,33,0,0,0-4.28-11.6,25.25,25.25,0,0,0-8.36-8.31,29.12,29.12,0,0,0-25-1.87,25.27,25.27,0,0,0-9.49,7,32.88,32.88,0,0,0-6,10.83A51.25,51.25,0,0,0,384,264.2a53.48,53.48,0,0,0,1,14A34.83,34.83,0,0,0,389.64,289.6ZM399,265.06a38.26,38.26,0,0,1,1.75-9.73,20.77,20.77,0,0,1,3.44-6.53,10.95,10.95,0,0,1,18.21,1.39,21,21,0,0,1,2.43,7,38.08,38.08,0,0,1,.29,9.89,38.6,38.6,0,0,1-1.95,9.69,21,21,0,0,1-3.48,6.44,11.53,11.53,0,0,1-4.31,3.33,10.8,10.8,0,0,1-9.6-.72,11.62,11.62,0,0,1-3.77-3.93,21.36,21.36,0,0,1-2.49-6.88A39,39,0,0,1,399,265.06Z" style="fill:#13457b"/><path d="M439.67,302.69c5.68.57,8.52.87,14.2,1.52l7.68-67.93c-6-.68-9-1-15-1.6Q443.1,268.69,439.67,302.69Z" style="fill:#13457b"/><path d="M460.82,285.41a31.84,31.84,0,0,0,4,11.38,25.45,25.45,0,0,0,8.12,8.33,30.07,30.07,0,0,0,12.16,4.27,40.29,40.29,0,0,0,6.94.39,39.29,39.29,0,0,0,6.4-.7l1.55-.31c.91-5.85,1.35-8.78,2.25-14.64l-3.84.95a27.07,27.07,0,0,1-5.3.74,29.9,29.9,0,0,1-5.43-.25,14.6,14.6,0,0,1-5.86-2,12,12,0,0,1-4-4.23,18.83,18.83,0,0,1-2.25-6.88,35.33,35.33,0,0,1,.08-9.58,33.94,33.94,0,0,1,2.49-9.44,20.26,20.26,0,0,1,4.28-6.35A13.43,13.43,0,0,1,494,253.38a27.43,27.43,0,0,1,4.72,1.11,30.08,30.08,0,0,1,5.11,2.31l3.45,1.93,2.2-14.3-1.31-.79a30.26,30.26,0,0,0-5.83-2.63,38.51,38.51,0,0,0-7-1.61,29.22,29.22,0,0,0-13.67,1.18,26.75,26.75,0,0,0-10.54,6.66,34.77,34.77,0,0,0-7,10.74,53.12,53.12,0,0,0-3.34,27.46Z" style="fill:#13457b"/><path d="M541.2,317.46c1-5.48,1.57-8.22,2.61-13.7q-12.48-2.37-25-4.49c.93-5.52,1.4-8.28,2.33-13.81,8.22,1.39,12.33,2.12,20.54,3.65,1-5.49,1.53-8.23,2.56-13.71-8.31-1.55-12.46-2.29-20.79-3.69.84-4.94,1.25-7.41,2.08-12.35,9.8,1.65,14.69,2.53,24.46,4.38l2.6-13.7q-19.82-3.66-39.69-6.85l-10.53,67.54Q521.83,313.85,541.2,317.46Z" style="fill:#13457b"/><polygon points="327.24 166.13 320.71 146.03 314.18 166.13 293.05 166.13 310.15 178.54 303.62 198.64 320.71 186.22 337.81 198.64 331.28 178.54 348.37 166.13 327.24 166.13" style="fill:#fff"/><polygon points="376.17 177.29 371.5 162.92 366.83 177.29 351.73 177.29 363.95 186.16 359.28 200.53 371.5 191.65 383.72 200.53 379.05 186.16 391.27 177.29 376.17 177.29" style="fill:#fff"/><polygon points="418.28 189.75 408.56 189.75 405.56 180.51 402.56 189.75 392.84 189.75 400.7 195.47 397.7 204.71 405.56 199 413.42 204.71 410.42 195.47 418.28 189.75" style="fill:#fff"/><polygon points="248.58 189.75 238.87 189.75 235.86 180.51 232.86 189.75 223.14 189.75 231 195.47 228 204.71 235.86 199 243.72 204.71 240.72 195.47 248.58 189.75" style="fill:#fff"/><polygon points="274.59 177.29 269.92 162.92 265.25 177.29 250.15 177.29 262.37 186.16 257.7 200.53 269.92 191.65 282.14 200.53 277.47 186.16 289.69 177.29 274.59 177.29" style="fill:#fff"/><polygon points="314.18 364.66 320.71 384.75 327.24 364.66 348.37 364.66 331.28 352.24 337.81 332.14 320.71 344.56 303.62 332.14 310.15 352.24 293.05 364.66 314.18 364.66" style="fill:#fff"/><polygon points="366.83 353.5 371.5 367.86 376.17 353.5 391.27 353.5 379.05 344.62 383.72 330.26 371.5 339.13 359.28 330.26 363.95 344.62 351.73 353.5 366.83 353.5" style="fill:#fff"/><polygon points="392.84 341.03 402.56 341.03 405.56 350.27 408.56 341.03 418.28 341.03 410.42 335.31 413.42 326.07 405.56 331.79 397.7 326.07 400.7 335.31 392.84 341.03" style="fill:#fff"/><polygon points="223.14 341.03 232.86 341.03 235.86 350.27 238.87 341.03 248.58 341.03 240.72 335.31 243.72 326.07 235.86 331.79 228 326.07 231 335.31 223.14 341.03" style="fill:#fff"/><polygon points="265.25 353.5 269.92 367.86 274.59 353.5 289.69 353.5 277.47 344.62 282.14 330.26 269.92 339.13 257.7 330.26 262.37 344.62 250.15 353.5 265.25 353.5" style="fill:#fff"/></g></g></g></g></svg>