<svg width="160" height="60" viewBox="0 0 160 60" fill="none" xmlns="http://www.w3.org/2000/svg">
<path fill-rule="evenodd" clip-rule="evenodd" d="M10.432 40.7953V36.4961C12.8287 37.2663 14.9494 37.6513 16.7942 37.6513C19.3412 37.6513 20.6149 36.9639 20.6149 35.5902C20.6149 35.078 20.4296 34.6476 20.058 34.2991C19.678 33.9295 18.7049 33.4171 17.1411 32.7605C14.3352 31.5826 12.5056 30.578 11.6545 29.7471C10.5515 28.6503 10 27.2673 10 25.5959C10 23.4435 10.8036 21.803 12.4097 20.6757C13.998 19.5582 16.0662 19 18.6175 19C20.0233 19 22.0579 19.2642 24.7191 19.7932V23.9288C22.739 23.1212 20.9009 22.7183 19.2027 22.7183C16.8114 22.7183 15.6158 23.3886 15.6158 24.7324C15.6158 25.2347 15.8566 25.6444 16.3389 25.962C16.74 26.219 17.8452 26.7618 19.652 27.5923C22.2536 28.772 23.9855 29.7974 24.8485 30.6696C25.8725 31.7042 26.3854 33.043 26.3854 34.6839C26.3854 37.0426 25.3806 38.8417 23.3725 40.0814C21.7456 41.0867 19.6359 41.5873 17.0448 41.5873C14.8566 41.5873 12.6519 41.3241 10.432 40.7953Z" fill="#009999"/>
<path fill-rule="evenodd" clip-rule="evenodd" d="M29.748 19.3762H35.7036V41.1453H29.748V19.3762Z" fill="#009999"/>
<path fill-rule="evenodd" clip-rule="evenodd" d="M41.165 41.1453V19.3762H56.4397V23.3136H46.905V28.2291H55.2045V31.8206H46.905V36.9865H56.6854V41.1453H41.165Z" fill="#009999"/>
<path fill-rule="evenodd" clip-rule="evenodd" d="M60.5732 41.1453V19.3762H68.2949L73.6596 33.2857L79.1588 19.3762H86.4932V41.1453H80.8465V25.7323L74.5935 41.3663H70.9019L64.7693 25.7323V41.1453H60.5732Z" fill="#009999"/>
<path fill-rule="evenodd" clip-rule="evenodd" d="M91.957 41.1453V19.3762H107.231V23.3136H97.6976V28.2291H105.997V31.8206H97.6976V36.9865H107.479V41.1453H91.957Z" fill="#009999"/>
<path fill-rule="evenodd" clip-rule="evenodd" d="M111.397 41.1453V19.3762H118.3L125.623 33.9489V19.3762H129.818V41.1453H123.112L115.594 26.3765V41.1453H111.397Z" fill="#009999"/>
<path fill-rule="evenodd" clip-rule="evenodd" d="M134.047 40.7959V36.4967C136.423 37.2669 138.544 37.652 140.41 37.652C142.958 37.652 144.23 36.9646 144.23 35.5908C144.23 35.0786 144.049 34.6483 143.69 34.2998C143.308 33.9301 142.331 33.4177 140.758 32.7612C137.961 31.5929 136.129 30.5888 135.27 29.7477C134.168 28.6607 133.617 27.2725 133.617 25.5817C133.617 23.4386 134.419 21.8035 136.027 20.6762C137.612 19.5587 139.683 19.0005 142.235 19.0005C143.669 19.0005 145.528 19.233 147.808 19.7003L148.335 19.7937V23.9293C146.354 23.1217 144.511 22.7187 142.804 22.7187C140.421 22.7187 139.233 23.3891 139.233 24.7329C139.233 25.2352 139.473 25.6448 139.954 25.9625C140.336 26.2096 141.446 26.7528 143.283 27.5928C145.865 28.7725 147.593 29.7979 148.463 30.6701C149.489 31.7047 150.001 33.0435 150.001 34.6844C150.001 37.043 149.002 38.8422 147.004 40.0819C145.367 41.0872 143.252 41.5878 140.662 41.5878C138.471 41.5879 136.265 41.3248 134.047 40.7959Z" fill="#009999"/>
</svg>
